<svg width="184" height="184" viewBox="0 0 184 184" fill="none" xmlns="http://www.w3.org/2000/svg">
<g id="Progress Rings SVG">
<g id="Ellipse 992" filter="url(#filter0_i_287_748)">
<circle cx="92" cy="92" r="82" fill="white"/>
</g>
<g id="Group 237201">
<circle id="Ellipse 995" cx="92" cy="92" r="87" stroke="#F2F3F9" stroke-width="10"/>
<path id="Ellipse 994" d="M92 5C140.049 5 179 43.9512 179 92C179 140.049 140.049 179 92 179C43.9512 179 5 140.049 5 92" stroke="#653A73" stroke-width="10" stroke-linecap="round"/>
</g>
<g id="Group 237202">
<circle id="Ellipse 995_2" cx="92" cy="92" r="49" stroke="#F2F3F9" stroke-width="10"/>
<path id="Ellipse 994_2" d="M92 40.935C120.203 40.935 143.065 63.7977 143.065 92.0002C143.065 120.203 120.203 143.065 92 143.065" stroke="#FF7049" stroke-width="10" stroke-linecap="round"/>
</g>
<g id="Group 237203">
<circle id="Ellipse 995_3" cx="92" cy="92" r="16" stroke="#F2F3F9" stroke-width="10"/>
<path id="Ellipse 994_3" d="M91.9999 72.1408C102.968 72.1408 111.859 81.0319 111.859 91.9995" stroke="#20C997" stroke-width="10" stroke-linecap="round"/>
</g>
</g>
<defs>
<filter id="filter0_i_287_748" x="0" y="0" width="174" height="174" filterUnits="userSpaceOnUse" color-interpolation-filters="sRGB">
<feFlood flood-opacity="0" result="BackgroundImageFix"/>
<feBlend mode="normal" in="SourceGraphic" in2="BackgroundImageFix" result="shape"/>
<feColorMatrix in="SourceAlpha" type="matrix" values="0 0 0 0 0 0 0 0 0 0 0 0 0 0 0 0 0 0 127 0" result="hardAlpha"/>
<feOffset dx="-10" dy="-10"/>
<feGaussianBlur stdDeviation="10"/>
<feComposite in2="hardAlpha" operator="arithmetic" k2="-1" k3="1"/>
<feColorMatrix type="matrix" values="0 0 0 0 0.337255 0 0 0 0 0.231373 0 0 0 0 1 0 0 0 0.1 0"/>
<feBlend mode="normal" in2="shape" result="effect1_innerShadow_287_748"/>
</filter>
</defs>
</svg>
