<svg
  width="266"
  height="247"
  viewBox="0 0 266 247"
  fill="none"
  xmlns="http://www.w3.org/2000/svg"
>
  <g filter="url(#filter0_i_19_415)">
    <circle cx="129" cy="155" r="82" fill="white" />
  </g>
  <circle cx="129" cy="155" r="87" stroke="#F2F3F9" stroke-width="10" />
  <path
    d="M129 68C177.049 68 216 106.951 216 155C216 203.049 177.049 242 129 242C80.9512 242 42 203.049 42 155"
    stroke="#653A73"
    stroke-width="10"
    stroke-linecap="round"
  />
  <circle cx="129" cy="155" r="49" stroke="#F2F3F9" stroke-width="10" />
  <path
    d="M129 106C156.062 106 178 127.938 178 155C178 182.062 156.062 204 129 204"
    stroke="#FF7049"
    stroke-width="10"
    stroke-linecap="round"
  />
  <circle cx="129" cy="155" r="16" stroke="#F2F3F9" stroke-width="10" />
  <path
    d="M130 139C138.284 139 145 146.611 145 156"
    stroke="#20C997"
    stroke-width="10"
    stroke-linecap="round"
  />
  <path d="M191 93.8335L227 26" stroke="#653A73" stroke-width="2" />
  <circle cx="191" cy="94.0001" r="7" fill="#653A73" />
  <g opacity="0.2" filter="url(#filter1_f_19_415)">
    <circle cx="191" cy="97.0001" r="8" fill="#3734A9" />
  </g>
  <circle cx="191" cy="94.0001" r="3" fill="white" />
  <path
    d="M181 6C181 2.68629 183.686 0 187 0H260C263.314 0 266 2.68629 266 6V22.6316C266 25.9453 263.314 28.6316 260 28.6316H236.373C232.1 28.6316 227.968 30.1625 224.726 32.9469C224.021 33.5526 222.979 33.5526 222.274 32.9469C219.032 30.1625 214.9 28.6316 210.627 28.6316H187C183.686 28.6316 181 25.9453 181 22.6316V6Z"
    fill="#653A73"
  />
  <path
    d="M195.112 18.11C194.306 18.11 193.613 17.9487 193.033 17.626C192.461 17.296 192.021 16.834 191.713 16.24C191.405 15.6387 191.251 14.931 191.251 14.117C191.251 13.5083 191.339 12.962 191.515 12.478C191.691 11.9867 191.944 11.5687 192.274 11.224C192.604 10.872 193.008 10.6043 193.484 10.421C193.968 10.2303 194.511 10.135 195.112 10.135C195.516 10.135 195.912 10.1863 196.3 10.289C196.689 10.3917 197.03 10.5383 197.323 10.729C197.477 10.8243 197.58 10.9417 197.631 11.081C197.683 11.213 197.694 11.345 197.664 11.477C197.635 11.6017 197.573 11.708 197.477 11.796C197.389 11.884 197.276 11.9353 197.136 11.95C197.004 11.9573 196.858 11.9097 196.696 11.807C196.469 11.6603 196.223 11.554 195.959 11.488C195.695 11.422 195.428 11.389 195.156 11.389C194.636 11.389 194.196 11.4953 193.836 11.708C193.477 11.9207 193.206 12.2287 193.022 12.632C192.839 13.0353 192.747 13.5303 192.747 14.117C192.747 14.6963 192.839 15.1913 193.022 15.602C193.206 16.0127 193.477 16.3243 193.836 16.537C194.196 16.7497 194.636 16.856 195.156 16.856C195.435 16.856 195.71 16.823 195.981 16.757C196.253 16.6837 196.509 16.5737 196.751 16.427C196.913 16.3317 197.056 16.2913 197.18 16.306C197.312 16.3133 197.422 16.3573 197.51 16.438C197.598 16.5187 197.657 16.6213 197.686 16.746C197.716 16.8633 197.708 16.988 197.664 17.12C197.62 17.2447 197.532 17.3547 197.4 17.45C197.107 17.6627 196.755 17.8277 196.344 17.945C195.941 18.055 195.53 18.11 195.112 18.11ZM200.695 18.11C200.138 18.11 199.654 17.9963 199.243 17.769C198.832 17.5417 198.513 17.219 198.286 16.801C198.059 16.3757 197.945 15.877 197.945 15.305C197.945 14.8723 198.007 14.4873 198.132 14.15C198.264 13.8053 198.451 13.512 198.693 13.27C198.935 13.0207 199.225 12.8337 199.562 12.709C199.899 12.577 200.277 12.511 200.695 12.511C201.252 12.511 201.736 12.6247 202.147 12.852C202.558 13.0793 202.877 13.402 203.104 13.82C203.331 14.238 203.445 14.733 203.445 15.305C203.445 15.7377 203.379 16.1263 203.247 16.471C203.122 16.8157 202.939 17.1127 202.697 17.362C202.455 17.604 202.165 17.791 201.828 17.923C201.491 18.0477 201.113 18.11 200.695 18.11ZM200.695 17.065C200.966 17.065 201.205 16.999 201.41 16.867C201.615 16.735 201.773 16.5407 201.883 16.284C202 16.02 202.059 15.6937 202.059 15.305C202.059 14.7183 201.934 14.282 201.685 13.996C201.436 13.7027 201.106 13.556 200.695 13.556C200.424 13.556 200.185 13.622 199.98 13.754C199.775 13.8787 199.613 14.073 199.496 14.337C199.386 14.5937 199.331 14.9163 199.331 15.305C199.331 15.8843 199.456 16.3243 199.705 16.625C199.954 16.9183 200.284 17.065 200.695 17.065ZM205.064 18.088C204.844 18.088 204.675 18.0293 204.558 17.912C204.441 17.7873 204.382 17.6113 204.382 17.384V13.226C204.382 12.9987 204.441 12.8263 204.558 12.709C204.675 12.5917 204.84 12.533 205.053 12.533C205.266 12.533 205.431 12.5917 205.548 12.709C205.665 12.8263 205.724 12.9987 205.724 13.226V14.029L205.603 13.699C205.75 13.3323 205.977 13.0427 206.285 12.83C206.593 12.6173 206.96 12.511 207.385 12.511C207.818 12.511 208.173 12.6137 208.452 12.819C208.731 13.0243 208.925 13.3397 209.035 13.765H208.881C209.028 13.3763 209.27 13.072 209.607 12.852C209.944 12.6247 210.333 12.511 210.773 12.511C211.184 12.511 211.521 12.5917 211.785 12.753C212.056 12.9143 212.258 13.16 212.39 13.49C212.522 13.8127 212.588 14.2233 212.588 14.722V17.384C212.588 17.6113 212.526 17.7873 212.401 17.912C212.284 18.0293 212.115 18.088 211.895 18.088C211.675 18.088 211.506 18.0293 211.389 17.912C211.272 17.7873 211.213 17.6113 211.213 17.384V14.777C211.213 14.3663 211.143 14.0657 211.004 13.875C210.872 13.6843 210.645 13.589 210.322 13.589C209.963 13.589 209.68 13.7173 209.475 13.974C209.27 14.2233 209.167 14.5717 209.167 15.019V17.384C209.167 17.6113 209.108 17.7873 208.991 17.912C208.874 18.0293 208.705 18.088 208.485 18.088C208.265 18.088 208.093 18.0293 207.968 17.912C207.851 17.7873 207.792 17.6113 207.792 17.384V14.777C207.792 14.3663 207.722 14.0657 207.583 13.875C207.451 13.6843 207.227 13.589 206.912 13.589C206.553 13.589 206.27 13.7173 206.065 13.974C205.86 14.2233 205.757 14.5717 205.757 15.019V17.384C205.757 17.8533 205.526 18.088 205.064 18.088ZM214.468 20.068C214.248 20.068 214.08 20.0093 213.962 19.892C213.845 19.7747 213.786 19.6023 213.786 19.375V13.226C213.786 12.9987 213.845 12.8263 213.962 12.709C214.08 12.5917 214.245 12.533 214.457 12.533C214.677 12.533 214.846 12.5917 214.963 12.709C215.081 12.8263 215.139 12.9987 215.139 13.226V14.084L215.018 13.754C215.128 13.38 215.352 13.0793 215.689 12.852C216.034 12.6247 216.434 12.511 216.888 12.511C217.358 12.511 217.768 12.6247 218.12 12.852C218.48 13.0793 218.758 13.402 218.956 13.82C219.154 14.2307 219.253 14.7257 219.253 15.305C219.253 15.877 219.154 16.3757 218.956 16.801C218.758 17.219 218.483 17.5417 218.131 17.769C217.779 17.9963 217.365 18.11 216.888 18.11C216.441 18.11 216.049 18 215.711 17.78C215.374 17.5527 215.147 17.2593 215.029 16.9H215.161V19.375C215.161 19.6023 215.099 19.7747 214.974 19.892C214.857 20.0093 214.688 20.068 214.468 20.068ZM216.503 17.065C216.775 17.065 217.013 16.999 217.218 16.867C217.424 16.735 217.581 16.5407 217.691 16.284C217.809 16.02 217.867 15.6937 217.867 15.305C217.867 14.7183 217.743 14.282 217.493 13.996C217.244 13.7027 216.914 13.556 216.503 13.556C216.232 13.556 215.994 13.622 215.788 13.754C215.583 13.8787 215.422 14.073 215.304 14.337C215.194 14.5937 215.139 14.9163 215.139 15.305C215.139 15.8843 215.264 16.3243 215.513 16.625C215.763 16.9183 216.093 17.065 216.503 17.065ZM221.999 18.11C221.391 18.11 220.932 17.9377 220.624 17.593C220.316 17.241 220.162 16.7277 220.162 16.053V10.85C220.162 10.6227 220.221 10.4503 220.338 10.333C220.456 10.2157 220.624 10.157 220.844 10.157C221.064 10.157 221.233 10.2157 221.35 10.333C221.475 10.4503 221.537 10.6227 221.537 10.85V15.987C221.537 16.3243 221.607 16.5737 221.746 16.735C221.893 16.8963 222.098 16.977 222.362 16.977C222.421 16.977 222.476 16.977 222.527 16.977C222.579 16.9697 222.63 16.9623 222.681 16.955C222.784 16.9403 222.854 16.9697 222.89 17.043C222.927 17.109 222.945 17.2483 222.945 17.461C222.945 17.6443 222.909 17.7873 222.835 17.89C222.762 17.9927 222.641 18.055 222.472 18.077C222.399 18.0843 222.322 18.0917 222.241 18.099C222.161 18.1063 222.08 18.11 221.999 18.11ZM226.052 18.11C225.444 18.11 224.919 17.9963 224.479 17.769C224.039 17.5417 223.698 17.219 223.456 16.801C223.222 16.383 223.104 15.888 223.104 15.316C223.104 14.7587 223.218 14.271 223.445 13.853C223.68 13.435 223.999 13.1087 224.402 12.874C224.813 12.632 225.279 12.511 225.799 12.511C226.181 12.511 226.522 12.5733 226.822 12.698C227.13 12.8227 227.391 13.0023 227.603 13.237C227.823 13.4717 227.988 13.7577 228.098 14.095C228.216 14.425 228.274 14.799 228.274 15.217C228.274 15.349 228.227 15.4517 228.131 15.525C228.043 15.591 227.915 15.624 227.746 15.624H224.215V14.832H227.306L227.13 14.997C227.13 14.6597 227.079 14.3773 226.976 14.15C226.881 13.9227 226.738 13.7503 226.547 13.633C226.364 13.5083 226.133 13.446 225.854 13.446C225.546 13.446 225.282 13.5193 225.062 13.666C224.85 13.8053 224.685 14.007 224.567 14.271C224.457 14.5277 224.402 14.8357 224.402 15.195V15.272C224.402 15.8733 224.542 16.3243 224.82 16.625C225.106 16.9183 225.524 17.065 226.074 17.065C226.265 17.065 226.478 17.043 226.712 16.999C226.954 16.9477 227.182 16.8633 227.394 16.746C227.548 16.658 227.684 16.6213 227.801 16.636C227.919 16.6433 228.01 16.6837 228.076 16.757C228.15 16.8303 228.194 16.922 228.208 17.032C228.223 17.1347 228.201 17.241 228.142 17.351C228.091 17.461 227.999 17.5563 227.867 17.637C227.611 17.7983 227.314 17.9193 226.976 18C226.646 18.0733 226.338 18.11 226.052 18.11ZM231.586 18.11C231.109 18.11 230.709 18.0293 230.387 17.868C230.071 17.7067 229.837 17.472 229.683 17.164C229.529 16.8487 229.452 16.46 229.452 15.998V13.655H228.88C228.704 13.655 228.568 13.611 228.473 13.523C228.377 13.4277 228.33 13.2993 228.33 13.138C228.33 12.9693 228.377 12.841 228.473 12.753C228.568 12.665 228.704 12.621 228.88 12.621H229.452V11.62C229.452 11.3927 229.51 11.2203 229.628 11.103C229.752 10.9857 229.925 10.927 230.145 10.927C230.365 10.927 230.533 10.9857 230.651 11.103C230.768 11.2203 230.827 11.3927 230.827 11.62V12.621H231.993C232.169 12.621 232.304 12.665 232.4 12.753C232.495 12.841 232.543 12.9693 232.543 13.138C232.543 13.2993 232.495 13.4277 232.4 13.523C232.304 13.611 232.169 13.655 231.993 13.655H230.827V15.921C230.827 16.273 230.904 16.537 231.058 16.713C231.212 16.889 231.461 16.977 231.806 16.977C231.93 16.977 232.04 16.966 232.136 16.944C232.231 16.922 232.315 16.9073 232.389 16.9C232.477 16.8927 232.55 16.922 232.609 16.988C232.667 17.0467 232.697 17.1713 232.697 17.362C232.697 17.5087 232.671 17.6407 232.62 17.758C232.576 17.868 232.491 17.945 232.367 17.989C232.271 18.0183 232.147 18.044 231.993 18.066C231.839 18.0953 231.703 18.11 231.586 18.11ZM235.721 18.11C235.112 18.11 234.588 17.9963 234.148 17.769C233.708 17.5417 233.367 17.219 233.125 16.801C232.89 16.383 232.773 15.888 232.773 15.316C232.773 14.7587 232.886 14.271 233.114 13.853C233.348 13.435 233.667 13.1087 234.071 12.874C234.481 12.632 234.947 12.511 235.468 12.511C235.849 12.511 236.19 12.5733 236.491 12.698C236.799 12.8227 237.059 13.0023 237.272 13.237C237.492 13.4717 237.657 13.7577 237.767 14.095C237.884 14.425 237.943 14.799 237.943 15.217C237.943 15.349 237.895 15.4517 237.8 15.525C237.712 15.591 237.583 15.624 237.415 15.624H233.884V14.832H236.975L236.799 14.997C236.799 14.6597 236.747 14.3773 236.645 14.15C236.549 13.9227 236.406 13.7503 236.216 13.633C236.032 13.5083 235.801 13.446 235.523 13.446C235.215 13.446 234.951 13.5193 234.731 13.666C234.518 13.8053 234.353 14.007 234.236 14.271C234.126 14.5277 234.071 14.8357 234.071 15.195V15.272C234.071 15.8733 234.21 16.3243 234.489 16.625C234.775 16.9183 235.193 17.065 235.743 17.065C235.933 17.065 236.146 17.043 236.381 16.999C236.623 16.9477 236.85 16.8633 237.063 16.746C237.217 16.658 237.352 16.6213 237.47 16.636C237.587 16.6433 237.679 16.6837 237.745 16.757C237.818 16.8303 237.862 16.922 237.877 17.032C237.891 17.1347 237.869 17.241 237.811 17.351C237.759 17.461 237.668 17.5563 237.536 17.637C237.279 17.7983 236.982 17.9193 236.645 18C236.315 18.0733 236.007 18.11 235.721 18.11ZM240.879 18.11C240.41 18.11 239.996 17.9963 239.636 17.769C239.284 17.5417 239.009 17.219 238.811 16.801C238.613 16.3757 238.514 15.877 238.514 15.305C238.514 14.7257 238.613 14.2307 238.811 13.82C239.009 13.402 239.284 13.0793 239.636 12.852C239.996 12.6247 240.41 12.511 240.879 12.511C241.327 12.511 241.715 12.621 242.045 12.841C242.383 13.061 242.61 13.3507 242.727 13.71H242.606V10.85C242.606 10.6227 242.665 10.4503 242.782 10.333C242.9 10.2157 243.068 10.157 243.288 10.157C243.508 10.157 243.677 10.2157 243.794 10.333C243.919 10.4503 243.981 10.6227 243.981 10.85V17.384C243.981 17.6113 243.923 17.7873 243.805 17.912C243.688 18.0293 243.519 18.088 243.299 18.088C243.079 18.088 242.911 18.0293 242.793 17.912C242.676 17.7873 242.617 17.6113 242.617 17.384V16.526L242.738 16.856C242.628 17.2373 242.405 17.5417 242.067 17.769C241.73 17.9963 241.334 18.11 240.879 18.11ZM241.264 17.065C241.536 17.065 241.774 16.999 241.979 16.867C242.185 16.735 242.342 16.5407 242.452 16.284C242.57 16.02 242.628 15.6937 242.628 15.305C242.628 14.7183 242.504 14.282 242.254 13.996C242.005 13.7027 241.675 13.556 241.264 13.556C240.993 13.556 240.755 13.622 240.549 13.754C240.344 13.8787 240.183 14.073 240.065 14.337C239.955 14.5937 239.9 14.9163 239.9 15.305C239.9 15.8843 240.025 16.3243 240.274 16.625C240.524 16.9183 240.854 17.065 241.264 17.065ZM245.847 18.055C245.598 18.055 245.396 17.978 245.242 17.824C245.096 17.67 245.022 17.472 245.022 17.23C245.022 16.9953 245.096 16.8047 245.242 16.658C245.396 16.504 245.598 16.427 245.847 16.427C246.104 16.427 246.302 16.504 246.441 16.658C246.588 16.8047 246.661 16.9953 246.661 17.23C246.661 17.472 246.588 17.67 246.441 17.824C246.302 17.978 246.104 18.055 245.847 18.055ZM245.847 14.194C245.598 14.194 245.396 14.117 245.242 13.963C245.096 13.809 245.022 13.6147 245.022 13.38C245.022 13.138 245.096 12.9437 245.242 12.797C245.396 12.643 245.598 12.566 245.847 12.566C246.104 12.566 246.302 12.643 246.441 12.797C246.588 12.9437 246.661 13.138 246.661 13.38C246.661 13.6147 246.588 13.809 246.441 13.963C246.302 14.117 246.104 14.194 245.847 14.194ZM253.333 18.11C252.695 18.11 252.149 17.9597 251.694 17.659C251.247 17.351 250.906 16.911 250.671 16.339C250.436 15.767 250.319 15.074 250.319 14.26C250.319 13.6 250.392 13.017 250.539 12.511C250.693 11.9977 250.913 11.565 251.199 11.213C251.485 10.861 251.833 10.5933 252.244 10.41C252.662 10.2267 253.131 10.135 253.652 10.135C253.975 10.135 254.301 10.1863 254.631 10.289C254.968 10.3843 255.284 10.531 255.577 10.729C255.694 10.8023 255.771 10.8977 255.808 11.015C255.845 11.1323 255.848 11.2497 255.819 11.367C255.797 11.477 255.746 11.576 255.665 11.664C255.592 11.7447 255.496 11.796 255.379 11.818C255.262 11.8327 255.133 11.7997 254.994 11.719C254.745 11.5723 254.51 11.4697 254.29 11.411C254.07 11.3523 253.85 11.323 253.63 11.323C253.205 11.323 252.845 11.422 252.552 11.62C252.259 11.818 252.035 12.115 251.881 12.511C251.734 12.907 251.661 13.402 251.661 13.996V14.821H251.529C251.588 14.447 251.709 14.128 251.892 13.864C252.083 13.5927 252.325 13.3873 252.618 13.248C252.911 13.1013 253.238 13.028 253.597 13.028C254.044 13.028 254.44 13.1343 254.785 13.347C255.13 13.5597 255.401 13.853 255.599 14.227C255.797 14.601 255.896 15.03 255.896 15.514C255.896 16.0127 255.786 16.46 255.566 16.856C255.353 17.2447 255.053 17.5527 254.664 17.78C254.283 18 253.839 18.11 253.333 18.11ZM253.256 16.988C253.52 16.988 253.751 16.9293 253.949 16.812C254.154 16.6947 254.312 16.5297 254.422 16.317C254.532 16.097 254.587 15.8477 254.587 15.569C254.587 15.283 254.532 15.0337 254.422 14.821C254.312 14.6083 254.154 14.4433 253.949 14.326C253.751 14.2013 253.52 14.139 253.256 14.139C252.992 14.139 252.761 14.2013 252.563 14.326C252.365 14.4433 252.207 14.6083 252.09 14.821C251.98 15.0337 251.925 15.283 251.925 15.569C251.925 15.8477 251.98 16.097 252.09 16.317C252.207 16.5297 252.365 16.6947 252.563 16.812C252.761 16.9293 252.992 16.988 253.256 16.988Z"
    fill="white"
  />
  <path d="M61 101L39 34" stroke="#BCBDC2" stroke-width="2" />
  <circle cx="61" cy="101" r="7" fill="#BCBDC2" />
  <g opacity="0.2" filter="url(#filter2_f_19_415)">
    <circle cx="61" cy="104" r="8" fill="#3734A9" />
  </g>
  <circle cx="61" cy="101" r="3" fill="white" />
  <path
    d="M0 15C0 11.6863 2.68629 9 6 9H79C82.3137 9 85 11.6863 85 15V31.6316C85 34.9453 82.3137 37.6316 79 37.6316H55.3729C51.0996 37.6316 46.9677 39.1625 43.726 41.9469C43.0209 42.5526 41.9791 42.5526 41.274 41.9469C38.0323 39.1625 33.9004 37.6316 29.6271 37.6316H6C2.68629 37.6316 0 34.9453 0 31.6316V15Z"
    fill="#BCBDC2"
  />
  <path
    d="M12.0354 27.088C11.8081 27.088 11.6321 27.0257 11.5074 26.901C11.3901 26.769 11.3314 26.5893 11.3314 26.362V19.96C11.3314 19.7253 11.3937 19.5493 11.5184 19.432C11.6431 19.3073 11.8191 19.245 12.0464 19.245H14.6974C15.5481 19.245 16.2044 19.4503 16.6664 19.861C17.1284 20.2643 17.3594 20.8327 17.3594 21.566C17.3594 22.0427 17.2531 22.4533 17.0404 22.798C16.8351 23.1427 16.5344 23.4067 16.1384 23.59C15.7424 23.7733 15.2621 23.865 14.6974 23.865L14.7964 23.7H15.1594C15.4601 23.7 15.7204 23.7733 15.9404 23.92C16.1677 24.0667 16.3657 24.2977 16.5344 24.613L17.3594 26.142C17.4474 26.296 17.4877 26.4463 17.4804 26.593C17.4731 26.7397 17.4181 26.8607 17.3154 26.956C17.2127 27.044 17.0624 27.088 16.8644 27.088C16.6664 27.088 16.5051 27.0477 16.3804 26.967C16.2557 26.879 16.1457 26.747 16.0504 26.571L14.9394 24.525C14.8074 24.2757 14.6497 24.1107 14.4664 24.03C14.2904 23.942 14.0631 23.898 13.7844 23.898H12.7394V26.362C12.7394 26.5893 12.6807 26.769 12.5634 26.901C12.4461 27.0257 12.2701 27.088 12.0354 27.088ZM12.7394 22.853H14.4554C14.9614 22.853 15.3427 22.7503 15.5994 22.545C15.8634 22.3323 15.9954 22.017 15.9954 21.599C15.9954 21.1883 15.8634 20.8803 15.5994 20.675C15.3427 20.4623 14.9614 20.356 14.4554 20.356H12.7394V22.853ZM21.0318 27.11C20.4231 27.11 19.8988 26.9963 19.4588 26.769C19.0188 26.5417 18.6778 26.219 18.4358 25.801C18.2011 25.383 18.0838 24.888 18.0838 24.316C18.0838 23.7587 18.1974 23.271 18.4248 22.853C18.6594 22.435 18.9784 22.1087 19.3818 21.874C19.7924 21.632 20.2581 21.511 20.7788 21.511C21.1601 21.511 21.5011 21.5733 21.8018 21.698C22.1098 21.8227 22.3701 22.0023 22.5828 22.237C22.8028 22.4717 22.9678 22.7577 23.0778 23.095C23.1951 23.425 23.2538 23.799 23.2538 24.217C23.2538 24.349 23.2061 24.4517 23.1108 24.525C23.0228 24.591 22.8944 24.624 22.7258 24.624H19.1948V23.832H22.2858L22.1098 23.997C22.1098 23.6597 22.0584 23.3773 21.9558 23.15C21.8604 22.9227 21.7174 22.7503 21.5268 22.633C21.3434 22.5083 21.1124 22.446 20.8338 22.446C20.5258 22.446 20.2618 22.5193 20.0418 22.666C19.8291 22.8053 19.6641 23.007 19.5468 23.271C19.4368 23.5277 19.3818 23.8357 19.3818 24.195V24.272C19.3818 24.8733 19.5211 25.3243 19.7998 25.625C20.0858 25.9183 20.5038 26.065 21.0538 26.065C21.2444 26.065 21.4571 26.043 21.6918 25.999C21.9338 25.9477 22.1611 25.8633 22.3738 25.746C22.5278 25.658 22.6634 25.6213 22.7808 25.636C22.8981 25.6433 22.9898 25.6837 23.0558 25.757C23.1291 25.8303 23.1731 25.922 23.1878 26.032C23.2024 26.1347 23.1804 26.241 23.1218 26.351C23.0704 26.461 22.9788 26.5563 22.8468 26.637C22.5901 26.7983 22.2931 26.9193 21.9558 27C21.6258 27.0733 21.3178 27.11 21.0318 27.11ZM24.8267 27.088C24.6067 27.088 24.438 27.0293 24.3207 26.912C24.2034 26.7873 24.1447 26.6113 24.1447 26.384V22.226C24.1447 21.9987 24.2034 21.8263 24.3207 21.709C24.438 21.5917 24.603 21.533 24.8157 21.533C25.0284 21.533 25.1934 21.5917 25.3107 21.709C25.428 21.8263 25.4867 21.9987 25.4867 22.226V23.029L25.3657 22.699C25.5124 22.3323 25.7397 22.0427 26.0477 21.83C26.3557 21.6173 26.7224 21.511 27.1477 21.511C27.5804 21.511 27.936 21.6137 28.2147 21.819C28.4934 22.0243 28.6877 22.3397 28.7977 22.765H28.6437C28.7904 22.3763 29.0324 22.072 29.3697 21.852C29.707 21.6247 30.0957 21.511 30.5357 21.511C30.9464 21.511 31.2837 21.5917 31.5477 21.753C31.819 21.9143 32.0207 22.16 32.1527 22.49C32.2847 22.8127 32.3507 23.2233 32.3507 23.722V26.384C32.3507 26.6113 32.2884 26.7873 32.1637 26.912C32.0464 27.0293 31.8777 27.088 31.6577 27.088C31.4377 27.088 31.269 27.0293 31.1517 26.912C31.0344 26.7873 30.9757 26.6113 30.9757 26.384V23.777C30.9757 23.3663 30.906 23.0657 30.7667 22.875C30.6347 22.6843 30.4074 22.589 30.0847 22.589C29.7254 22.589 29.443 22.7173 29.2377 22.974C29.0324 23.2233 28.9297 23.5717 28.9297 24.019V26.384C28.9297 26.6113 28.871 26.7873 28.7537 26.912C28.6364 27.0293 28.4677 27.088 28.2477 27.088C28.0277 27.088 27.8554 27.0293 27.7307 26.912C27.6134 26.7873 27.5547 26.6113 27.5547 26.384V23.777C27.5547 23.3663 27.485 23.0657 27.3457 22.875C27.2137 22.6843 26.99 22.589 26.6747 22.589C26.3154 22.589 26.033 22.7173 25.8277 22.974C25.6224 23.2233 25.5197 23.5717 25.5197 24.019V26.384C25.5197 26.8533 25.2887 27.088 24.8267 27.088ZM35.3202 27.11C34.9315 27.11 34.5832 27.0367 34.2752 26.89C33.9745 26.736 33.7362 26.5307 33.5602 26.274C33.3915 26.0173 33.3072 25.7277 33.3072 25.405C33.3072 25.009 33.4098 24.6973 33.6152 24.47C33.8205 24.2353 34.1542 24.0667 34.6162 23.964C35.0782 23.8613 35.6978 23.81 36.4752 23.81H37.0252V24.602H36.4862C36.0315 24.602 35.6685 24.624 35.3972 24.668C35.1258 24.712 34.9315 24.789 34.8142 24.899C34.7042 25.0017 34.6492 25.1483 34.6492 25.339C34.6492 25.581 34.7335 25.779 34.9022 25.933C35.0708 26.087 35.3055 26.164 35.6062 26.164C35.8482 26.164 36.0608 26.109 36.2442 25.999C36.4348 25.8817 36.5852 25.724 36.6952 25.526C36.8052 25.328 36.8602 25.1007 36.8602 24.844V23.579C36.8602 23.2123 36.7795 22.9483 36.6182 22.787C36.4568 22.6257 36.1855 22.545 35.8042 22.545C35.5915 22.545 35.3605 22.5707 35.1112 22.622C34.8692 22.6733 34.6125 22.7613 34.3412 22.886C34.2018 22.952 34.0772 22.9703 33.9672 22.941C33.8645 22.9117 33.7838 22.853 33.7252 22.765C33.6665 22.6697 33.6372 22.567 33.6372 22.457C33.6372 22.347 33.6665 22.2407 33.7252 22.138C33.7838 22.028 33.8828 21.9473 34.0222 21.896C34.3595 21.7567 34.6822 21.6577 34.9902 21.599C35.3055 21.5403 35.5915 21.511 35.8482 21.511C36.3762 21.511 36.8088 21.5917 37.1462 21.753C37.4908 21.9143 37.7475 22.16 37.9162 22.49C38.0848 22.8127 38.1692 23.2307 38.1692 23.744V26.384C38.1692 26.6113 38.1142 26.7873 38.0042 26.912C37.8942 27.0293 37.7365 27.088 37.5312 27.088C37.3258 27.088 37.1645 27.0293 37.0472 26.912C36.9372 26.7873 36.8822 26.6113 36.8822 26.384V25.856H36.9702C36.9188 26.1127 36.8162 26.3363 36.6622 26.527C36.5155 26.7103 36.3285 26.8533 36.1012 26.956C35.8738 27.0587 35.6135 27.11 35.3202 27.11ZM40.0268 27.077C39.8068 27.077 39.6381 27.011 39.5208 26.879C39.4035 26.747 39.3448 26.5637 39.3448 26.329V22.292C39.3448 22.05 39.4035 21.8667 39.5208 21.742C39.6381 21.61 39.8068 21.544 40.0268 21.544C40.2468 21.544 40.4155 21.61 40.5328 21.742C40.6575 21.8667 40.7198 22.05 40.7198 22.292V26.329C40.7198 26.5637 40.6611 26.747 40.5438 26.879C40.4265 27.011 40.2541 27.077 40.0268 27.077ZM40.0268 20.521C39.7701 20.521 39.5685 20.4587 39.4218 20.334C39.2825 20.202 39.2128 20.0223 39.2128 19.795C39.2128 19.5603 39.2825 19.3807 39.4218 19.256C39.5685 19.1313 39.7701 19.069 40.0268 19.069C40.2908 19.069 40.4925 19.1313 40.6318 19.256C40.7711 19.3807 40.8408 19.5603 40.8408 19.795C40.8408 20.0223 40.7711 20.202 40.6318 20.334C40.4925 20.4587 40.2908 20.521 40.0268 20.521ZM42.6105 27.088C42.3905 27.088 42.2218 27.0293 42.1045 26.912C41.9872 26.7873 41.9285 26.6113 41.9285 26.384V22.226C41.9285 21.9987 41.9872 21.8263 42.1045 21.709C42.2218 21.5917 42.3868 21.533 42.5995 21.533C42.8122 21.533 42.9772 21.5917 43.0945 21.709C43.2118 21.8263 43.2705 21.9987 43.2705 22.226V22.974L43.1495 22.699C43.3108 22.3103 43.5602 22.017 43.8975 21.819C44.2422 21.6137 44.6308 21.511 45.0635 21.511C45.4962 21.511 45.8518 21.5917 46.1305 21.753C46.4092 21.9143 46.6182 22.16 46.7575 22.49C46.8968 22.8127 46.9665 23.2233 46.9665 23.722V26.384C46.9665 26.6113 46.9078 26.7873 46.7905 26.912C46.6732 27.0293 46.5045 27.088 46.2845 27.088C46.0645 27.088 45.8922 27.0293 45.7675 26.912C45.6502 26.7873 45.5915 26.6113 45.5915 26.384V23.788C45.5915 23.37 45.5108 23.0657 45.3495 22.875C45.1955 22.6843 44.9535 22.589 44.6235 22.589C44.2202 22.589 43.8975 22.7173 43.6555 22.974C43.4208 23.2233 43.3035 23.557 43.3035 23.975V26.384C43.3035 26.8533 43.0725 27.088 42.6105 27.088ZM48.8251 27.077C48.6051 27.077 48.4364 27.011 48.3191 26.879C48.2018 26.747 48.1431 26.5637 48.1431 26.329V22.292C48.1431 22.05 48.2018 21.8667 48.3191 21.742C48.4364 21.61 48.6051 21.544 48.8251 21.544C49.0451 21.544 49.2138 21.61 49.3311 21.742C49.4558 21.8667 49.5181 22.05 49.5181 22.292V26.329C49.5181 26.5637 49.4594 26.747 49.3421 26.879C49.2248 27.011 49.0524 27.077 48.8251 27.077ZM48.8251 20.521C48.5684 20.521 48.3668 20.4587 48.2201 20.334C48.0808 20.202 48.0111 20.0223 48.0111 19.795C48.0111 19.5603 48.0808 19.3807 48.2201 19.256C48.3668 19.1313 48.5684 19.069 48.8251 19.069C49.0891 19.069 49.2908 19.1313 49.4301 19.256C49.5694 19.3807 49.6391 19.5603 49.6391 19.795C49.6391 20.0223 49.5694 20.202 49.4301 20.334C49.2908 20.4587 49.0891 20.521 48.8251 20.521ZM51.4088 27.088C51.1888 27.088 51.0201 27.0293 50.9028 26.912C50.7855 26.7873 50.7268 26.6113 50.7268 26.384V22.226C50.7268 21.9987 50.7855 21.8263 50.9028 21.709C51.0201 21.5917 51.1851 21.533 51.3978 21.533C51.6105 21.533 51.7755 21.5917 51.8928 21.709C52.0101 21.8263 52.0688 21.9987 52.0688 22.226V22.974L51.9478 22.699C52.1091 22.3103 52.3585 22.017 52.6958 21.819C53.0405 21.6137 53.4291 21.511 53.8618 21.511C54.2945 21.511 54.6501 21.5917 54.9288 21.753C55.2075 21.9143 55.4165 22.16 55.5558 22.49C55.6951 22.8127 55.7648 23.2233 55.7648 23.722V26.384C55.7648 26.6113 55.7061 26.7873 55.5888 26.912C55.4715 27.0293 55.3028 27.088 55.0828 27.088C54.8628 27.088 54.6905 27.0293 54.5658 26.912C54.4485 26.7873 54.3898 26.6113 54.3898 26.384V23.788C54.3898 23.37 54.3091 23.0657 54.1478 22.875C53.9938 22.6843 53.7518 22.589 53.4218 22.589C53.0185 22.589 52.6958 22.7173 52.4538 22.974C52.2191 23.2233 52.1018 23.557 52.1018 23.975V26.384C52.1018 26.8533 51.8708 27.088 51.4088 27.088ZM59.4494 29.09C59.0534 29.09 58.6684 29.0533 58.2944 28.98C57.9277 28.9067 57.594 28.793 57.2934 28.639C57.154 28.5657 57.0587 28.4777 57.0074 28.375C56.9634 28.2723 56.9487 28.166 56.9634 28.056C56.9854 27.9533 57.0294 27.8617 57.0954 27.781C57.1687 27.7003 57.2567 27.6453 57.3594 27.616C57.462 27.5867 57.5684 27.6013 57.6784 27.66C58.001 27.8213 58.3054 27.924 58.5914 27.968C58.8847 28.0193 59.134 28.045 59.3394 28.045C59.8307 28.045 60.1974 27.924 60.4394 27.682C60.6887 27.4473 60.8134 27.0953 60.8134 26.626V25.636H60.9124C60.8024 26.01 60.5714 26.3107 60.2194 26.538C59.8747 26.758 59.4824 26.868 59.0424 26.868C58.5584 26.868 58.1367 26.758 57.7774 26.538C57.418 26.3107 57.1394 25.9953 56.9414 25.592C56.7434 25.1887 56.6444 24.7193 56.6444 24.184C56.6444 23.7807 56.6994 23.4177 56.8094 23.095C56.9267 22.765 57.088 22.4827 57.2934 22.248C57.506 22.0133 57.759 21.8337 58.0524 21.709C58.353 21.577 58.683 21.511 59.0424 21.511C59.497 21.511 59.893 21.6247 60.2304 21.852C60.575 22.072 60.7987 22.3653 60.9014 22.732L60.7914 23.007V22.226C60.7914 21.9987 60.85 21.8263 60.9674 21.709C61.092 21.5917 61.2607 21.533 61.4734 21.533C61.6934 21.533 61.862 21.5917 61.9794 21.709C62.0967 21.8263 62.1554 21.9987 62.1554 22.226V26.461C62.1554 27.3337 61.9244 27.99 61.4624 28.43C61.0004 28.87 60.3294 29.09 59.4494 29.09ZM59.4164 25.823C59.7024 25.823 59.948 25.757 60.1534 25.625C60.3587 25.493 60.5164 25.306 60.6264 25.064C60.7437 24.8147 60.8024 24.5213 60.8024 24.184C60.8024 23.678 60.6777 23.282 60.4284 22.996C60.179 22.7027 59.8417 22.556 59.4164 22.556C59.1304 22.556 58.8847 22.622 58.6794 22.754C58.474 22.886 58.3127 23.073 58.1954 23.315C58.0854 23.557 58.0304 23.8467 58.0304 24.184C58.0304 24.69 58.155 25.0897 58.4044 25.383C58.6537 25.6763 58.991 25.823 59.4164 25.823ZM64.02 27.055C63.7707 27.055 63.569 26.978 63.415 26.824C63.2684 26.67 63.195 26.472 63.195 26.23C63.195 25.9953 63.2684 25.8047 63.415 25.658C63.569 25.504 63.7707 25.427 64.02 25.427C64.2767 25.427 64.4747 25.504 64.614 25.658C64.7607 25.8047 64.834 25.9953 64.834 26.23C64.834 26.472 64.7607 26.67 64.614 26.824C64.4747 26.978 64.2767 27.055 64.02 27.055ZM64.02 23.194C63.7707 23.194 63.569 23.117 63.415 22.963C63.2684 22.809 63.195 22.6147 63.195 22.38C63.195 22.138 63.2684 21.9437 63.415 21.797C63.569 21.643 63.7707 21.566 64.02 21.566C64.2767 21.566 64.4747 21.643 64.614 21.797C64.7607 21.9437 64.834 22.138 64.834 22.38C64.834 22.6147 64.7607 22.809 64.614 22.963C64.4747 23.117 64.2767 23.194 64.02 23.194ZM69.3829 27C69.1482 27 68.9759 26.9487 68.8659 26.846C68.7632 26.736 68.7119 26.5783 68.7119 26.373C68.7119 26.2483 68.7449 26.1273 68.8109 26.01C68.8769 25.8927 68.9722 25.768 69.0969 25.636L71.3079 23.282C71.6452 22.93 71.8872 22.611 72.0339 22.325C72.1806 22.0317 72.2539 21.7383 72.2539 21.445C72.2539 21.0783 72.1366 20.7997 71.9019 20.609C71.6746 20.4183 71.3409 20.323 70.9009 20.323C70.6516 20.323 70.4022 20.3597 70.1529 20.433C69.9036 20.499 69.6506 20.6163 69.3939 20.785C69.2619 20.873 69.1372 20.9097 69.0199 20.895C68.9099 20.8803 68.8109 20.8327 68.7229 20.752C68.6422 20.6713 68.5872 20.5723 68.5579 20.455C68.5286 20.3377 68.5322 20.2203 68.5689 20.103C68.6129 19.9783 68.7009 19.872 68.8329 19.784C69.1482 19.5713 69.5002 19.41 69.8889 19.3C70.2849 19.19 70.6809 19.135 71.0769 19.135C71.6342 19.135 72.1036 19.2193 72.4849 19.388C72.8662 19.5567 73.1559 19.8023 73.3539 20.125C73.5519 20.4477 73.6509 20.84 73.6509 21.302C73.6509 21.61 73.5996 21.9107 73.4969 22.204C73.4016 22.4973 73.2512 22.7943 73.0459 23.095C72.8479 23.3957 72.5876 23.7147 72.2649 24.052L70.1969 26.208V25.834H73.4309C73.6289 25.834 73.7792 25.8817 73.8819 25.977C73.9846 26.0723 74.0359 26.2153 74.0359 26.406C74.0359 26.5967 73.9846 26.7433 73.8819 26.846C73.7792 26.9487 73.6289 27 73.4309 27H69.3829Z"
    fill="#130F26"
  />
  <defs>
    <filter
      id="filter0_i_19_415"
      x="37"
      y="63"
      width="174"
      height="174"
      filterUnits="userSpaceOnUse"
      color-interpolation-filters="sRGB"
    >
      <feFlood flood-opacity="0" result="BackgroundImageFix" />
      <feBlend
        mode="normal"
        in="SourceGraphic"
        in2="BackgroundImageFix"
        result="shape"
      />
      <feColorMatrix
        in="SourceAlpha"
        type="matrix"
        values="0 0 0 0 0 0 0 0 0 0 0 0 0 0 0 0 0 0 127 0"
        result="hardAlpha"
      />
      <feOffset dx="-10" dy="-10" />
      <feGaussianBlur stdDeviation="10" />
      <feComposite in2="hardAlpha" operator="arithmetic" k2="-1" k3="1" />
      <feColorMatrix
        type="matrix"
        values="0 0 0 0 0.337255 0 0 0 0 0.231373 0 0 0 0 1 0 0 0 0.1 0"
      />
      <feBlend mode="normal" in2="shape" result="effect1_innerShadow_19_415" />
    </filter>
    <filter
      id="filter1_f_19_415"
      x="174"
      y="80.0001"
      width="34"
      height="34"
      filterUnits="userSpaceOnUse"
      color-interpolation-filters="sRGB"
    >
      <feFlood flood-opacity="0" result="BackgroundImageFix" />
      <feBlend
        mode="normal"
        in="SourceGraphic"
        in2="BackgroundImageFix"
        result="shape"
      />
      <feGaussianBlur
        stdDeviation="4.5"
        result="effect1_foregroundBlur_19_415"
      />
    </filter>
    <filter
      id="filter2_f_19_415"
      x="44"
      y="87"
      width="34"
      height="34"
      filterUnits="userSpaceOnUse"
      color-interpolation-filters="sRGB"
    >
      <feFlood flood-opacity="0" result="BackgroundImageFix" />
      <feBlend
        mode="normal"
        in="SourceGraphic"
        in2="BackgroundImageFix"
        result="shape"
      />
      <feGaussianBlur
        stdDeviation="4.5"
        result="effect1_foregroundBlur_19_415"
      />
    </filter>
  </defs>
</svg>
