<svg width="680" height="324" viewBox="0 0 680 324" fill="none" xmlns="http://www.w3.org/2000/svg">
<g filter="url(#filter0_d_349_613)">
<path d="M665 268C665 286.856 665 296.284 659.142 302.142C653.284 308 643.856 308 625 308L55 308C36.1438 308 26.7157 308 20.8579 302.142C15 296.284 15 286.856 15 268L15 54C15 35.1438 15 25.7157 20.8579 19.8579C26.7157 14 36.1438 14 55 14L625 14C643.856 14 653.284 14 659.142 19.8579C665 25.7157 665 35.1438 665 54L665 268Z" fill="white" shape-rendering="crispEdges"/>
<path d="M262 170.833L262 79.8335" stroke="#653A73" stroke-width="2"/>
<path d="M68.3399 172.366C61.0084 163.897 54.6654 156.601 42 156.601V282.833H634V156.578C621.362 156.578 615.039 163.842 607.723 172.249L607.64 172.344L607.627 172.358C600.175 180.934 591.711 190.675 574.792 190.675C557.246 190.675 549.276 173.958 541.573 157.795L541.564 157.775C534.709 143.408 527.626 128.563 515.563 128.563C503.674 128.563 496.222 147.864 489.638 164.92L489.614 164.981C481.624 185.7 474.066 205.291 456.355 205.291C439.385 205.291 430.921 195.208 423.466 186.297L423.454 186.283C416.107 177.533 409.764 169.978 397.146 169.978C384.925 169.978 378.213 181.851 371.095 194.442L371.074 194.478L371.037 194.544C363.305 208.211 355.312 222.339 337.959 222.339C320.516 222.339 312.525 207.237 304.802 192.599C297.986 179.685 290.922 166.33 278.771 166.33C265.714 166.33 259.392 171.526 252.061 177.563C244.585 183.71 236.1 190.675 219.563 190.675C201.914 190.675 194.335 172.3 186.324 152.842L186.308 152.803C179.742 136.869 172.31 118.833 160.375 118.833C148.431 118.833 140.996 136.899 134.427 152.864C126.416 172.322 118.837 190.697 101.188 190.697C84.2592 190.697 75.795 180.968 68.3399 172.366Z" fill="url(#paint0_linear_349_613)"/>
<path d="M42 155.416C54.6654 155.416 61.0084 162.677 68.3399 171.105C75.795 179.664 84.2592 189.346 101.188 189.346C118.837 189.346 126.416 171.061 134.427 151.697C140.996 135.811 148.431 117.833 160.375 117.833C172.32 117.833 179.754 135.811 186.324 151.675C194.335 171.039 201.914 189.324 219.563 189.324C236.1 189.324 244.585 182.393 252.061 176.276C259.392 170.269 265.714 165.098 278.771 165.098C290.922 165.098 297.986 178.388 304.802 191.238C312.525 205.805 320.516 220.834 337.959 220.834C355.34 220.834 363.331 206.729 371.074 193.109C378.2 180.566 384.914 168.728 397.146 168.728C409.771 168.728 416.114 176.254 423.466 184.967C430.921 193.835 439.385 203.869 456.355 203.869C474.066 203.869 481.624 184.373 489.614 163.756C496.204 146.769 503.659 127.515 515.563 127.515C527.631 127.515 534.716 142.302 541.573 156.604C549.276 172.689 557.246 189.324 574.792 189.324C591.72 189.324 600.184 179.62 607.639 171.083C614.992 162.677 621.314 155.394 634 155.394" stroke="#653A73" stroke-width="4"/>
<g opacity="0.16" filter="url(#filter1_f_349_613)">
<path d="M42 170.416C54.6654 170.416 61.0084 177.677 68.3399 186.105C75.795 194.664 84.2592 204.346 101.188 204.346C118.837 204.346 126.416 186.061 134.427 166.697C140.996 150.811 148.431 132.833 160.375 132.833C172.32 132.833 179.754 150.811 186.324 166.675C194.335 186.039 201.914 204.324 219.563 204.324C236.1 204.324 244.585 197.393 252.061 191.276C259.392 185.269 265.714 180.098 278.771 180.098C290.922 180.098 297.986 193.388 304.802 206.238C312.525 220.805 320.516 235.833 337.959 235.833C355.34 235.833 363.331 221.729 371.074 208.109C378.2 195.566 384.914 183.728 397.146 183.728C409.771 183.728 416.114 191.254 423.466 199.967C430.921 208.835 439.385 218.869 456.355 218.869C474.066 218.869 481.624 199.373 489.614 178.756C496.204 161.769 503.66 142.515 515.563 142.515C527.631 142.515 534.716 157.302 541.573 171.604C549.276 187.689 557.246 204.324 574.792 204.324C591.72 204.324 600.184 194.62 607.639 186.083C614.992 177.677 621.314 170.394 634 170.394" stroke="#653A73" stroke-width="4"/>
</g>
<path d="M46.068 284.505V278.493H47.448V284.505C47.448 285.249 47.22 285.837 46.764 286.269C46.316 286.701 45.724 286.917 44.988 286.917C44.252 286.917 43.656 286.701 43.2 286.269C42.752 285.837 42.528 285.249 42.528 284.505H43.908C43.916 284.873 44.008 285.165 44.184 285.381C44.368 285.597 44.636 285.705 44.988 285.705C45.34 285.705 45.608 285.597 45.792 285.381C45.976 285.157 46.068 284.865 46.068 284.505ZM54.0294 285.153C54.4294 284.745 54.6294 284.201 54.6294 283.521C54.6294 282.841 54.4294 282.301 54.0294 281.901C53.6374 281.501 53.1694 281.301 52.6254 281.301C52.0814 281.301 51.6094 281.497 51.2094 281.889C50.8174 282.281 50.6214 282.817 50.6214 283.497C50.6214 284.177 50.8174 284.725 51.2094 285.141C51.6094 285.549 52.0814 285.753 52.6254 285.753C53.1694 285.753 53.6374 285.553 54.0294 285.153ZM52.3374 286.941C51.4574 286.941 50.7174 286.621 50.1174 285.981C49.5174 285.333 49.2174 284.509 49.2174 283.509C49.2174 282.501 49.5134 281.685 50.1054 281.061C50.7054 280.429 51.4494 280.113 52.3374 280.113C52.8574 280.113 53.3134 280.233 53.7054 280.473C54.1054 280.705 54.4134 281.013 54.6294 281.397V280.221H56.0094V286.833H54.6294V285.597C54.4054 286.005 54.0974 286.333 53.7054 286.581C53.3134 286.821 52.8574 286.941 52.3374 286.941ZM59.1743 280.221V281.265C59.6143 280.497 60.3183 280.113 61.2863 280.113C62.0303 280.113 62.6423 280.361 63.1223 280.857C63.6103 281.353 63.8543 282.045 63.8543 282.933V286.833H62.4983V283.137C62.4983 282.545 62.3503 282.093 62.0543 281.781C61.7583 281.461 61.3543 281.301 60.8423 281.301C60.3303 281.301 59.9223 281.461 59.6183 281.781C59.3223 282.093 59.1743 282.545 59.1743 283.137V286.833H57.8063V280.221H59.1743Z" fill="#A3ABBD"/>
<path d="M94.9 286.833V278.493H99.808V279.561H96.268V282.093H99.028V283.149H96.268V286.833H94.9ZM103.86 286.941C102.9 286.941 102.12 286.629 101.52 286.005C100.92 285.381 100.62 284.553 100.62 283.521C100.62 282.489 100.924 281.665 101.532 281.049C102.14 280.425 102.924 280.113 103.884 280.113C104.852 280.113 105.636 280.413 106.236 281.013C106.836 281.605 107.136 282.381 107.136 283.341C107.136 283.573 107.12 283.789 107.088 283.989H102.024C102.056 284.541 102.24 284.981 102.576 285.309C102.92 285.629 103.348 285.789 103.86 285.789C104.604 285.789 105.128 285.481 105.432 284.865H106.908C106.708 285.473 106.344 285.973 105.816 286.365C105.288 286.749 104.636 286.941 103.86 286.941ZM105.708 283.053C105.7 282.509 105.52 282.077 105.168 281.757C104.816 281.429 104.388 281.265 103.884 281.265C103.38 281.265 102.956 281.429 102.612 281.757C102.276 282.077 102.084 282.509 102.036 283.053H105.708ZM113.27 285.141C113.67 284.725 113.87 284.177 113.87 283.497C113.87 282.817 113.67 282.281 113.27 281.889C112.878 281.497 112.406 281.301 111.854 281.301C111.31 281.301 110.838 281.501 110.438 281.901C110.046 282.301 109.85 282.841 109.85 283.521C109.85 284.201 110.046 284.745 110.438 285.153C110.838 285.553 111.31 285.753 111.854 285.753C112.398 285.753 112.87 285.549 113.27 285.141ZM112.154 280.113C113.042 280.113 113.782 280.429 114.374 281.061C114.966 281.685 115.262 282.501 115.262 283.509C115.262 284.509 114.962 285.333 114.362 285.981C113.77 286.621 113.034 286.941 112.154 286.941C111.634 286.941 111.178 286.821 110.786 286.581C110.394 286.333 110.082 286.005 109.85 285.597V286.833H108.482V277.953H109.85V281.397C110.074 281.013 110.382 280.705 110.774 280.473C111.174 280.233 111.634 280.113 112.154 280.113Z" fill="#A3ABBD"/>
<path d="M154.684 278.493V286.833H153.316V281.121L150.772 286.833H149.824L147.268 281.121V286.833H145.9V278.493H147.376L150.304 285.033L153.22 278.493H154.684ZM160.838 285.153C161.238 284.745 161.438 284.201 161.438 283.521C161.438 282.841 161.238 282.301 160.838 281.901C160.446 281.501 159.978 281.301 159.434 281.301C158.89 281.301 158.418 281.497 158.018 281.889C157.626 282.281 157.43 282.817 157.43 283.497C157.43 284.177 157.626 284.725 158.018 285.141C158.418 285.549 158.89 285.753 159.434 285.753C159.978 285.753 160.446 285.553 160.838 285.153ZM159.146 286.941C158.266 286.941 157.526 286.621 156.926 285.981C156.326 285.333 156.026 284.509 156.026 283.509C156.026 282.501 156.322 281.685 156.914 281.061C157.514 280.429 158.258 280.113 159.146 280.113C159.666 280.113 160.122 280.233 160.514 280.473C160.914 280.705 161.222 281.013 161.438 281.397V280.221H162.818V286.833H161.438V285.597C161.214 286.005 160.906 286.333 160.514 286.581C160.122 286.821 159.666 286.941 159.146 286.941ZM165.983 280.221V281.373C166.407 280.533 167.067 280.113 167.963 280.113V281.529H167.615C167.079 281.529 166.671 281.665 166.391 281.937C166.119 282.209 165.983 282.681 165.983 283.353V286.833H164.615V280.221H165.983Z" fill="#A3ABBD"/>
<path d="M204.528 286.833L203.928 285.129H200.436L199.836 286.833H198.408L201.396 278.481H202.98L205.968 286.833H204.528ZM200.808 284.061H203.556L202.188 280.137L200.808 284.061ZM212.055 285.141C212.455 284.725 212.655 284.177 212.655 283.497C212.655 282.817 212.455 282.281 212.055 281.889C211.663 281.497 211.191 281.301 210.639 281.301C210.095 281.301 209.623 281.501 209.223 281.901C208.831 282.301 208.635 282.841 208.635 283.521C208.635 284.201 208.831 284.745 209.223 285.153C209.623 285.553 210.095 285.753 210.639 285.753C211.183 285.753 211.655 285.549 212.055 285.141ZM210.939 280.113C211.827 280.113 212.567 280.429 213.159 281.061C213.751 281.685 214.047 282.501 214.047 283.509C214.047 284.509 213.747 285.333 213.147 285.981C212.555 286.621 211.819 286.941 210.939 286.941C210.419 286.941 209.963 286.821 209.571 286.581C209.179 286.333 208.867 286.005 208.635 285.597V289.977H207.267V280.221H208.635V281.397C208.859 281.013 209.167 280.705 209.559 280.473C209.959 280.233 210.419 280.113 210.939 280.113ZM216.768 280.221V281.373C217.192 280.533 217.852 280.113 218.748 280.113V281.529H218.4C217.864 281.529 217.456 281.665 217.176 281.937C216.904 282.209 216.768 282.681 216.768 283.353V286.833H215.4V280.221H216.768Z" fill="#A3ABBD"/>
<path d="M258.684 277.493V285.833H257.316V280.121L254.772 285.833H253.824L251.268 280.121V285.833H249.9V277.493H251.376L254.304 284.033L257.22 277.493H258.684ZM260.026 282.497C260.026 281.833 260.162 281.245 260.434 280.733C260.714 280.221 261.09 279.825 261.562 279.545C262.042 279.257 262.57 279.113 263.146 279.113C263.666 279.113 264.118 279.217 264.502 279.425C264.894 279.625 265.206 279.877 265.438 280.181V279.221H266.818V285.833H265.438V284.849C265.206 285.161 264.89 285.421 264.49 285.629C264.09 285.837 263.634 285.941 263.122 285.941C262.554 285.941 262.034 285.797 261.562 285.509C261.09 285.213 260.714 284.805 260.434 284.285C260.162 283.757 260.026 283.161 260.026 282.497ZM265.438 282.521C265.438 282.065 265.342 281.669 265.15 281.333C264.966 280.997 264.722 280.741 264.418 280.565C264.114 280.389 263.786 280.301 263.434 280.301C263.082 280.301 262.754 280.389 262.45 280.565C262.146 280.733 261.898 280.985 261.706 281.321C261.522 281.649 261.43 282.041 261.43 282.497C261.43 282.953 261.522 283.353 261.706 283.697C261.898 284.041 262.146 284.305 262.45 284.489C262.762 284.665 263.09 284.753 263.434 284.753C263.786 284.753 264.114 284.665 264.418 284.489C264.722 284.313 264.966 284.057 265.15 283.721C265.342 283.377 265.438 282.977 265.438 282.521ZM274.567 279.221L270.511 288.941H269.095L270.439 285.725L267.835 279.221H269.359L271.219 284.261L273.151 279.221H274.567Z" fill="#02004D"/>
<path d="M308.068 284.505V278.493H309.448V284.505C309.448 285.249 309.22 285.837 308.764 286.269C308.316 286.701 307.724 286.917 306.988 286.917C306.252 286.917 305.656 286.701 305.2 286.269C304.752 285.837 304.528 285.249 304.528 284.505H305.908C305.916 284.873 306.008 285.165 306.184 285.381C306.368 285.597 306.636 285.705 306.988 285.705C307.34 285.705 307.608 285.597 307.792 285.381C307.976 285.157 308.068 284.865 308.068 284.505ZM316.293 280.221H317.661V286.833H316.293V285.789C315.861 286.549 315.157 286.929 314.181 286.929C313.437 286.929 312.821 286.685 312.333 286.197C311.853 285.701 311.613 285.009 311.613 284.121V280.221H312.969V283.917C312.969 284.509 313.117 284.965 313.413 285.285C313.709 285.597 314.113 285.753 314.625 285.753C315.137 285.753 315.541 285.597 315.837 285.285C316.141 284.965 316.293 284.509 316.293 283.917V280.221ZM320.834 280.221V281.265C321.274 280.497 321.978 280.113 322.946 280.113C323.69 280.113 324.302 280.361 324.782 280.857C325.27 281.353 325.514 282.045 325.514 282.933V286.833H324.158V283.137C324.158 282.545 324.01 282.093 323.714 281.781C323.418 281.461 323.014 281.301 322.502 281.301C321.99 281.301 321.582 281.461 321.278 281.781C320.982 282.093 320.834 282.545 320.834 283.137V286.833H319.466V280.221H320.834Z" fill="#A3ABBD"/>
<path d="M360.068 284.505V278.493H361.448V284.505C361.448 285.249 361.22 285.837 360.764 286.269C360.316 286.701 359.724 286.917 358.988 286.917C358.252 286.917 357.656 286.701 357.2 286.269C356.752 285.837 356.528 285.249 356.528 284.505H357.908C357.916 284.873 358.008 285.165 358.184 285.381C358.368 285.597 358.636 285.705 358.988 285.705C359.34 285.705 359.608 285.597 359.792 285.381C359.976 285.157 360.068 284.865 360.068 284.505ZM368.293 280.221H369.661V286.833H368.293V285.789C367.861 286.549 367.157 286.929 366.181 286.929C365.437 286.929 364.821 286.685 364.333 286.197C363.853 285.701 363.613 285.009 363.613 284.121V280.221H364.969V283.917C364.969 284.509 365.117 284.965 365.413 285.285C365.709 285.597 366.113 285.753 366.625 285.753C367.137 285.753 367.541 285.597 367.837 285.285C368.141 284.965 368.293 284.509 368.293 283.917V280.221ZM371.466 286.833V277.953H372.834V286.833H371.466Z" fill="#A3ABBD"/>
<path d="M409.528 286.833L408.928 285.129H405.436L404.836 286.833H403.408L406.396 278.481H407.98L410.968 286.833H409.528ZM405.808 284.061H408.556L407.188 280.137L405.808 284.061ZM416.887 280.221H418.255V286.833H416.887V285.789C416.455 286.549 415.751 286.929 414.775 286.929C414.031 286.929 413.415 286.685 412.927 286.197C412.447 285.701 412.207 285.009 412.207 284.121V280.221H413.563V283.917C413.563 284.509 413.711 284.965 414.007 285.285C414.303 285.597 414.707 285.753 415.219 285.753C415.731 285.753 416.135 285.597 416.431 285.285C416.735 284.965 416.887 284.509 416.887 283.917V280.221ZM422.724 286.941C421.844 286.941 421.104 286.621 420.504 285.981C419.904 285.333 419.604 284.509 419.604 283.509C419.604 282.501 419.9 281.685 420.492 281.061C421.092 280.429 421.836 280.113 422.724 280.113C423.244 280.113 423.7 280.233 424.092 280.473C424.492 280.705 424.8 281.013 425.016 281.397V280.221H426.396V286.941C426.396 287.869 426.108 288.625 425.532 289.209C424.964 289.801 424.204 290.097 423.252 290.097C422.3 290.097 421.528 289.885 420.936 289.461C420.344 289.045 420.008 288.477 419.928 287.757H421.284C421.388 288.101 421.608 288.377 421.944 288.585C422.288 288.801 422.716 288.909 423.228 288.909C423.74 288.909 424.164 288.741 424.5 288.405C424.844 288.069 425.016 287.581 425.016 286.941V285.597C424.792 286.005 424.484 286.333 424.092 286.581C423.7 286.821 423.244 286.941 422.724 286.941ZM424.416 285.153C424.816 284.745 425.016 284.201 425.016 283.521C425.016 282.841 424.816 282.301 424.416 281.901C424.024 281.501 423.556 281.301 423.012 281.301C422.468 281.301 421.996 281.497 421.596 281.889C421.204 282.281 421.008 282.817 421.008 283.497C421.008 284.177 421.204 284.725 421.596 285.141C421.996 285.549 422.468 285.753 423.012 285.753C423.556 285.753 424.024 285.553 424.416 285.153Z" fill="#A3ABBD"/>
<path d="M460.492 279.501C460.084 279.501 459.752 279.605 459.496 279.813C459.24 280.021 459.112 280.325 459.112 280.725C459.112 281.117 459.264 281.417 459.568 281.625C459.872 281.833 460.24 281.985 460.672 282.081C461.104 282.177 461.536 282.289 461.968 282.417C462.4 282.537 462.768 282.765 463.072 283.101C463.376 283.437 463.528 283.913 463.528 284.529C463.528 285.145 463.268 285.697 462.748 286.185C462.228 286.673 461.532 286.917 460.66 286.917C459.788 286.917 459.08 286.713 458.536 286.305C457.992 285.897 457.72 285.333 457.72 284.613H459.184C459.216 284.981 459.352 285.273 459.592 285.489C459.832 285.705 460.184 285.813 460.648 285.813C461.112 285.813 461.476 285.693 461.74 285.453C462.012 285.213 462.148 284.929 462.148 284.601C462.148 284.273 462.064 284.017 461.896 283.833C461.736 283.649 461.524 283.513 461.26 283.425C461.004 283.329 460.72 283.245 460.408 283.173C460.096 283.101 459.78 283.017 459.46 282.921C459.148 282.825 458.86 282.701 458.596 282.549C458.34 282.397 458.128 282.177 457.96 281.889C457.8 281.593 457.72 281.233 457.72 280.809C457.72 280.081 457.98 279.497 458.5 279.057C459.028 278.609 459.708 278.385 460.54 278.385C461.38 278.385 462.048 278.577 462.544 278.961C463.048 279.345 463.328 279.901 463.384 280.629H461.872C461.84 280.309 461.704 280.041 461.464 279.825C461.224 279.609 460.9 279.501 460.492 279.501ZM467.926 286.941C466.966 286.941 466.186 286.629 465.586 286.005C464.986 285.381 464.686 284.553 464.686 283.521C464.686 282.489 464.99 281.665 465.598 281.049C466.206 280.425 466.99 280.113 467.95 280.113C468.918 280.113 469.702 280.413 470.302 281.013C470.902 281.605 471.202 282.381 471.202 283.341C471.202 283.573 471.186 283.789 471.154 283.989H466.09C466.122 284.541 466.306 284.981 466.642 285.309C466.986 285.629 467.414 285.789 467.926 285.789C468.67 285.789 469.194 285.481 469.498 284.865H470.974C470.774 285.473 470.41 285.973 469.882 286.365C469.354 286.749 468.702 286.941 467.926 286.941ZM469.774 283.053C469.766 282.509 469.586 282.077 469.234 281.757C468.882 281.429 468.454 281.265 467.95 281.265C467.446 281.265 467.022 281.429 466.678 281.757C466.342 282.077 466.15 282.509 466.102 283.053H469.774ZM477.336 285.141C477.736 284.725 477.936 284.177 477.936 283.497C477.936 282.817 477.736 282.281 477.336 281.889C476.944 281.497 476.472 281.301 475.92 281.301C475.376 281.301 474.904 281.501 474.504 281.901C474.112 282.301 473.916 282.841 473.916 283.521C473.916 284.201 474.112 284.745 474.504 285.153C474.904 285.553 475.376 285.753 475.92 285.753C476.464 285.753 476.936 285.549 477.336 285.141ZM476.22 280.113C477.108 280.113 477.848 280.429 478.44 281.061C479.032 281.685 479.328 282.501 479.328 283.509C479.328 284.509 479.028 285.333 478.428 285.981C477.836 286.621 477.1 286.941 476.22 286.941C475.7 286.941 475.244 286.821 474.852 286.581C474.46 286.333 474.148 286.005 473.916 285.597V289.977H472.548V280.221H473.916V281.397C474.14 281.013 474.448 280.705 474.84 280.473C475.24 280.233 475.7 280.113 476.22 280.113Z" fill="#A3ABBD"/>
<path d="M513.704 285.681C514.544 285.681 515.228 285.405 515.756 284.853C516.292 284.293 516.56 283.561 516.56 282.657C516.56 281.745 516.292 281.013 515.756 280.461C515.228 279.909 514.544 279.633 513.704 279.633C512.864 279.633 512.176 279.909 511.64 280.461C511.112 281.013 510.848 281.745 510.848 282.657C510.848 283.561 511.112 284.293 511.64 284.853C512.176 285.405 512.864 285.681 513.704 285.681ZM513.704 286.917C512.512 286.917 511.504 286.517 510.68 285.717C509.856 284.909 509.444 283.889 509.444 282.657C509.444 281.417 509.856 280.397 510.68 279.597C511.504 278.789 512.512 278.385 513.704 278.385C514.904 278.385 515.912 278.789 516.728 279.597C517.552 280.397 517.964 281.417 517.964 282.657C517.964 283.889 517.552 284.909 516.728 285.717C515.912 286.517 514.904 286.917 513.704 286.917ZM522.094 286.941C521.134 286.941 520.354 286.629 519.754 286.005C519.154 285.381 518.854 284.557 518.854 283.533C518.854 282.501 519.154 281.673 519.754 281.049C520.362 280.425 521.142 280.113 522.094 280.113C522.894 280.113 523.554 280.305 524.074 280.689C524.602 281.065 524.958 281.605 525.142 282.309H523.666C523.418 281.613 522.894 281.265 522.094 281.265C521.534 281.265 521.086 281.465 520.75 281.865C520.422 282.257 520.258 282.809 520.258 283.521C520.258 284.233 520.422 284.789 520.75 285.189C521.086 285.589 521.534 285.789 522.094 285.789C522.886 285.789 523.41 285.441 523.666 284.745H525.142C524.95 285.417 524.59 285.953 524.062 286.353C523.534 286.745 522.878 286.941 522.094 286.941ZM529.709 281.337H528.101V284.997C528.101 285.245 528.157 285.425 528.269 285.537C528.389 285.641 528.589 285.693 528.869 285.693H529.709V286.833H528.629C527.357 286.833 526.721 286.221 526.721 284.997V281.337H525.941V280.221H526.721V278.577H528.101V280.221H529.709V281.337Z" fill="#A3ABBD"/>
<path d="M566.384 278.481H567.752V286.833H566.384L562.268 280.605V286.833H560.9V278.481H562.268L566.384 284.697V278.481ZM573.844 285.189C574.244 284.789 574.444 284.233 574.444 283.521C574.444 282.809 574.248 282.257 573.856 281.865C573.472 281.465 573.004 281.265 572.452 281.265C571.9 281.265 571.436 281.465 571.06 281.865C570.684 282.257 570.496 282.813 570.496 283.533C570.496 284.245 570.68 284.801 571.048 285.201C571.416 285.593 571.872 285.789 572.416 285.789C572.968 285.789 573.444 285.589 573.844 285.189ZM572.416 286.941C571.456 286.941 570.664 286.629 570.04 286.005C569.416 285.373 569.104 284.549 569.104 283.533C569.104 282.509 569.424 281.685 570.064 281.061C570.712 280.429 571.516 280.113 572.476 280.113C573.436 280.113 574.236 280.429 574.876 281.061C575.524 281.685 575.848 282.505 575.848 283.521C575.848 284.537 575.516 285.361 574.852 285.993C574.196 286.625 573.384 286.941 572.416 286.941ZM576.421 280.221H577.885L579.757 285.609L581.629 280.221H583.105L580.585 286.833H578.929L576.421 280.221Z" fill="#A3ABBD"/>
<path d="M615.268 285.789H616.624C617.592 285.789 618.336 285.513 618.856 284.961C619.384 284.409 619.648 283.653 619.648 282.693C619.648 281.725 619.384 280.969 618.856 280.425C618.336 279.873 617.592 279.597 616.624 279.597H615.268V285.789ZM616.624 278.493C617.968 278.493 619.04 278.873 619.84 279.633C620.648 280.385 621.052 281.405 621.052 282.693C621.052 283.973 620.648 284.985 619.84 285.729C619.04 286.465 617.968 286.833 616.624 286.833H613.9V278.493H616.624ZM625.192 286.941C624.232 286.941 623.452 286.629 622.852 286.005C622.252 285.381 621.952 284.553 621.952 283.521C621.952 282.489 622.256 281.665 622.864 281.049C623.472 280.425 624.256 280.113 625.216 280.113C626.184 280.113 626.968 280.413 627.568 281.013C628.168 281.605 628.468 282.381 628.468 283.341C628.468 283.573 628.452 283.789 628.42 283.989H623.356C623.388 284.541 623.572 284.981 623.908 285.309C624.252 285.629 624.68 285.789 625.192 285.789C625.936 285.789 626.46 285.481 626.764 284.865H628.24C628.04 285.473 627.676 285.973 627.148 286.365C626.62 286.749 625.968 286.941 625.192 286.941ZM627.04 283.053C627.032 282.509 626.852 282.077 626.5 281.757C626.148 281.429 625.72 281.265 625.216 281.265C624.712 281.265 624.288 281.429 623.944 281.757C623.608 282.077 623.416 282.509 623.368 283.053H627.04ZM632.598 286.941C631.638 286.941 630.858 286.629 630.258 286.005C629.658 285.381 629.358 284.557 629.358 283.533C629.358 282.501 629.658 281.673 630.258 281.049C630.866 280.425 631.646 280.113 632.598 280.113C633.398 280.113 634.058 280.305 634.578 280.689C635.106 281.065 635.462 281.605 635.646 282.309H634.17C633.922 281.613 633.398 281.265 632.598 281.265C632.038 281.265 631.59 281.465 631.254 281.865C630.926 282.257 630.762 282.809 630.762 283.521C630.762 284.233 630.926 284.789 631.254 285.189C631.59 285.589 632.038 285.789 632.598 285.789C633.39 285.789 633.914 285.441 634.17 284.745H635.646C635.454 285.417 635.094 285.953 634.566 286.353C634.038 286.745 633.382 286.941 632.598 286.941Z" fill="#A3ABBD"/>
<circle cx="262" cy="170.833" r="7" fill="#653A73"/>
<g opacity="0.2" filter="url(#filter2_f_349_613)">
<circle cx="262" cy="173.833" r="8" fill="#3734A9"/>
</g>
<circle cx="262" cy="170.833" r="3" fill="white"/>
<path d="M60.918 64.112C60.6567 64.112 60.456 64.0373 60.316 63.888C60.176 63.7387 60.106 63.5333 60.106 63.272V54.858C60.106 54.5873 60.1807 54.382 60.33 54.242C60.4793 54.0927 60.6847 54.018 60.946 54.018C61.1793 54.018 61.3613 54.0647 61.492 54.158C61.632 54.242 61.758 54.3913 61.87 54.606L65.328 61.004H64.88L68.338 54.606C68.45 54.3913 68.5713 54.242 68.702 54.158C68.8327 54.0647 69.0147 54.018 69.248 54.018C69.5093 54.018 69.71 54.0927 69.85 54.242C69.99 54.382 70.06 54.5873 70.06 54.858V63.272C70.06 63.5333 69.99 63.7387 69.85 63.888C69.7193 64.0373 69.5187 64.112 69.248 64.112C68.9867 64.112 68.786 64.0373 68.646 63.888C68.506 63.7387 68.436 63.5333 68.436 63.272V56.79H68.744L65.804 62.152C65.7107 62.3107 65.6127 62.4273 65.51 62.502C65.4073 62.5767 65.2673 62.614 65.09 62.614C64.9127 62.614 64.768 62.5767 64.656 62.502C64.544 62.418 64.446 62.3013 64.362 62.152L61.394 56.776H61.73V63.272C61.73 63.5333 61.66 63.7387 61.52 63.888C61.3893 64.0373 61.1887 64.112 60.918 64.112ZM75.1863 64.14C74.477 64.14 73.861 63.9953 73.3383 63.706C72.8156 63.4167 72.4096 63.006 72.1203 62.474C71.831 61.9327 71.6863 61.298 71.6863 60.57C71.6863 60.0193 71.7656 59.5293 71.9243 59.1C72.0923 58.6613 72.3303 58.288 72.6383 57.98C72.9463 57.6627 73.315 57.4247 73.7443 57.266C74.1736 57.098 74.6543 57.014 75.1863 57.014C75.8956 57.014 76.5116 57.1587 77.0343 57.448C77.557 57.7373 77.963 58.148 78.2523 58.68C78.5416 59.212 78.6863 59.842 78.6863 60.57C78.6863 61.1207 78.6023 61.6153 78.4343 62.054C78.2756 62.4927 78.0423 62.8707 77.7343 63.188C77.4263 63.496 77.0576 63.734 76.6283 63.902C76.199 64.0607 75.7183 64.14 75.1863 64.14ZM75.1863 62.81C75.5316 62.81 75.835 62.726 76.0963 62.558C76.3576 62.39 76.5583 62.1427 76.6983 61.816C76.8476 61.48 76.9223 61.0647 76.9223 60.57C76.9223 59.8233 76.7636 59.268 76.4463 58.904C76.129 58.5307 75.709 58.344 75.1863 58.344C74.841 58.344 74.5376 58.428 74.2763 58.596C74.015 58.7547 73.8096 59.002 73.6603 59.338C73.5203 59.6647 73.4503 60.0753 73.4503 60.57C73.4503 61.3073 73.609 61.8673 73.9263 62.25C74.2436 62.6233 74.6636 62.81 75.1863 62.81ZM80.9987 64.112C80.7187 64.112 80.504 64.0373 80.3547 63.888C80.2054 63.7293 80.1307 63.5053 80.1307 63.216V57.924C80.1307 57.6347 80.2054 57.4153 80.3547 57.266C80.504 57.1167 80.714 57.042 80.9847 57.042C81.2554 57.042 81.4654 57.1167 81.6147 57.266C81.764 57.4153 81.8387 57.6347 81.8387 57.924V58.876L81.6847 58.526C81.89 58.0313 82.2074 57.658 82.6367 57.406C83.0754 57.1447 83.57 57.014 84.1207 57.014C84.6714 57.014 85.124 57.1167 85.4787 57.322C85.8334 57.5273 86.0994 57.84 86.2767 58.26C86.454 58.6707 86.5427 59.1933 86.5427 59.828V63.216C86.5427 63.5053 86.468 63.7293 86.3187 63.888C86.1694 64.0373 85.9547 64.112 85.6747 64.112C85.3947 64.112 85.1754 64.0373 85.0167 63.888C84.8674 63.7293 84.7927 63.5053 84.7927 63.216V59.912C84.7927 59.38 84.69 58.9927 84.4847 58.75C84.2887 58.5073 83.9807 58.386 83.5607 58.386C83.0474 58.386 82.6367 58.5493 82.3287 58.876C82.03 59.1933 81.8807 59.618 81.8807 60.15V63.216C81.8807 63.8133 81.5867 64.112 80.9987 64.112ZM91.4562 64.14C90.8495 64.14 90.3408 64.0373 89.9302 63.832C89.5288 63.6267 89.2302 63.328 89.0342 62.936C88.8382 62.5347 88.7402 62.04 88.7402 61.452V58.47H88.0122C87.7882 58.47 87.6155 58.414 87.4942 58.302C87.3728 58.1807 87.3122 58.0173 87.3122 57.812C87.3122 57.5973 87.3728 57.434 87.4942 57.322C87.6155 57.21 87.7882 57.154 88.0122 57.154H88.7402V55.88C88.7402 55.5907 88.8148 55.3713 88.9642 55.222C89.1228 55.0727 89.3422 54.998 89.6222 54.998C89.9022 54.998 90.1168 55.0727 90.2662 55.222C90.4155 55.3713 90.4902 55.5907 90.4902 55.88V57.154H91.9742C92.1982 57.154 92.3708 57.21 92.4922 57.322C92.6135 57.434 92.6742 57.5973 92.6742 57.812C92.6742 58.0173 92.6135 58.1807 92.4922 58.302C92.3708 58.414 92.1982 58.47 91.9742 58.47H90.4902V61.354C90.4902 61.802 90.5882 62.138 90.7842 62.362C90.9802 62.586 91.2975 62.698 91.7362 62.698C91.8948 62.698 92.0348 62.684 92.1562 62.656C92.2775 62.628 92.3848 62.6093 92.4782 62.6C92.5902 62.5907 92.6835 62.628 92.7582 62.712C92.8328 62.7867 92.8702 62.9453 92.8702 63.188C92.8702 63.3747 92.8375 63.5427 92.7722 63.692C92.7162 63.832 92.6088 63.93 92.4502 63.986C92.3288 64.0233 92.1702 64.056 91.9742 64.084C91.7782 64.1213 91.6055 64.14 91.4562 64.14ZM94.7389 64.112C94.4589 64.112 94.2443 64.0373 94.0949 63.888C93.9456 63.7293 93.8709 63.5053 93.8709 63.216V54.9C93.8709 54.6107 93.9456 54.3913 94.0949 54.242C94.2443 54.0927 94.4589 54.018 94.7389 54.018C95.0189 54.018 95.2336 54.0927 95.3829 54.242C95.5416 54.3913 95.6209 54.6107 95.6209 54.9V58.526H95.4249C95.6303 58.0313 95.9476 57.658 96.3769 57.406C96.8156 57.1447 97.3103 57.014 97.8609 57.014C98.4116 57.014 98.8643 57.1167 99.2189 57.322C99.5736 57.5273 99.8396 57.84 100.017 58.26C100.194 58.6707 100.283 59.1933 100.283 59.828V63.216C100.283 63.5053 100.208 63.7293 100.059 63.888C99.9096 64.0373 99.6949 64.112 99.4149 64.112C99.1349 64.112 98.9156 64.0373 98.7569 63.888C98.6076 63.7293 98.5329 63.5053 98.5329 63.216V59.912C98.5329 59.38 98.4303 58.9927 98.2249 58.75C98.0289 58.5073 97.7209 58.386 97.3009 58.386C96.7876 58.386 96.3769 58.5493 96.0689 58.876C95.7703 59.1933 95.6209 59.618 95.6209 60.15V63.216C95.6209 63.8133 95.3269 64.112 94.7389 64.112ZM104.398 64.14C103.624 64.14 103.04 63.9207 102.648 63.482C102.256 63.034 102.06 62.3807 102.06 61.522V54.9C102.06 54.6107 102.135 54.3913 102.284 54.242C102.434 54.0927 102.648 54.018 102.928 54.018C103.208 54.018 103.423 54.0927 103.572 54.242C103.731 54.3913 103.81 54.6107 103.81 54.9V61.438C103.81 61.8673 103.899 62.1847 104.076 62.39C104.263 62.5953 104.524 62.698 104.86 62.698C104.935 62.698 105.005 62.698 105.07 62.698C105.136 62.6887 105.201 62.6793 105.266 62.67C105.397 62.6513 105.486 62.6887 105.532 62.782C105.579 62.866 105.602 63.0433 105.602 63.314C105.602 63.5473 105.556 63.7293 105.462 63.86C105.369 63.9907 105.215 64.07 105 64.098C104.907 64.1073 104.809 64.1167 104.706 64.126C104.604 64.1353 104.501 64.14 104.398 64.14ZM108.089 66.632C107.884 66.632 107.716 66.576 107.585 66.464C107.455 66.3613 107.375 66.2213 107.347 66.044C107.329 65.8667 107.361 65.68 107.445 65.484L108.397 63.37V64.098L105.849 58.204C105.765 57.9987 105.737 57.8073 105.765 57.63C105.793 57.4527 105.877 57.3127 106.017 57.21C106.167 57.098 106.367 57.042 106.619 57.042C106.834 57.042 107.007 57.0933 107.137 57.196C107.268 57.2893 107.385 57.4713 107.487 57.742L109.377 62.46H108.957L110.889 57.728C110.992 57.4667 111.113 57.2893 111.253 57.196C111.393 57.0933 111.58 57.042 111.813 57.042C112.019 57.042 112.182 57.098 112.303 57.21C112.425 57.3127 112.499 57.4527 112.527 57.63C112.555 57.798 112.523 57.9847 112.429 58.19L109.027 65.96C108.906 66.2213 108.775 66.3987 108.635 66.492C108.495 66.5853 108.313 66.632 108.089 66.632ZM122.115 64.14C121.163 64.14 120.328 63.93 119.609 63.51C118.9 63.09 118.349 62.502 117.957 61.746C117.565 60.9807 117.369 60.0847 117.369 59.058C117.369 58.2833 117.481 57.588 117.705 56.972C117.929 56.3467 118.247 55.8147 118.657 55.376C119.077 54.928 119.577 54.5873 120.155 54.354C120.743 54.1113 121.397 53.99 122.115 53.99C123.077 53.99 123.912 54.2 124.621 54.62C125.331 55.0307 125.881 55.614 126.273 56.37C126.665 57.126 126.861 58.0173 126.861 59.044C126.861 59.8187 126.749 60.5187 126.525 61.144C126.301 61.7693 125.979 62.306 125.559 62.754C125.149 63.202 124.649 63.5473 124.061 63.79C123.483 64.0233 122.834 64.14 122.115 64.14ZM122.115 62.6C122.722 62.6 123.235 62.46 123.655 62.18C124.085 61.9 124.411 61.494 124.635 60.962C124.869 60.43 124.985 59.7953 124.985 59.058C124.985 57.938 124.733 57.07 124.229 56.454C123.735 55.838 123.03 55.53 122.115 55.53C121.518 55.53 121.005 55.67 120.575 55.95C120.146 56.2207 119.815 56.622 119.581 57.154C119.357 57.6767 119.245 58.3113 119.245 59.058C119.245 60.1687 119.497 61.0367 120.001 61.662C120.505 62.2873 121.21 62.6 122.115 62.6ZM131.287 64.112C131.054 64.112 130.849 64.0513 130.671 63.93C130.503 63.8087 130.363 63.622 130.251 63.37L128.025 58.204C127.941 57.9987 127.909 57.8073 127.927 57.63C127.955 57.4527 128.039 57.3127 128.179 57.21C128.329 57.098 128.529 57.042 128.781 57.042C128.996 57.042 129.169 57.0933 129.299 57.196C129.43 57.2893 129.547 57.4713 129.649 57.742L131.539 62.46H131.119L133.065 57.728C133.168 57.4667 133.285 57.2893 133.415 57.196C133.555 57.0933 133.742 57.042 133.975 57.042C134.181 57.042 134.344 57.098 134.465 57.21C134.587 57.3127 134.661 57.4527 134.689 57.63C134.717 57.798 134.685 57.9847 134.591 58.19L132.323 63.37C132.221 63.622 132.081 63.8087 131.903 63.93C131.735 64.0513 131.53 64.112 131.287 64.112ZM139.136 64.14C138.361 64.14 137.694 63.9953 137.134 63.706C136.574 63.4167 136.14 63.006 135.832 62.474C135.533 61.942 135.384 61.312 135.384 60.584C135.384 59.8747 135.528 59.254 135.818 58.722C136.116 58.19 136.522 57.7747 137.036 57.476C137.558 57.168 138.151 57.014 138.814 57.014C139.299 57.014 139.733 57.0933 140.116 57.252C140.508 57.4107 140.839 57.6393 141.11 57.938C141.39 58.2367 141.6 58.6007 141.74 59.03C141.889 59.45 141.964 59.926 141.964 60.458C141.964 60.626 141.903 60.7567 141.782 60.85C141.67 60.934 141.506 60.976 141.292 60.976H136.798V59.968H140.732L140.508 60.178C140.508 59.7487 140.442 59.3893 140.312 59.1C140.19 58.8107 140.008 58.5913 139.766 58.442C139.532 58.2833 139.238 58.204 138.884 58.204C138.492 58.204 138.156 58.2973 137.876 58.484C137.605 58.6613 137.395 58.918 137.246 59.254C137.106 59.5807 137.036 59.9727 137.036 60.43V60.528C137.036 61.2933 137.213 61.8673 137.568 62.25C137.932 62.6233 138.464 62.81 139.164 62.81C139.406 62.81 139.677 62.782 139.976 62.726C140.284 62.6607 140.573 62.5533 140.844 62.404C141.04 62.292 141.212 62.2453 141.362 62.264C141.511 62.2733 141.628 62.3247 141.712 62.418C141.805 62.5113 141.861 62.628 141.88 62.768C141.898 62.8987 141.87 63.034 141.796 63.174C141.73 63.314 141.614 63.4353 141.446 63.538C141.119 63.7433 140.741 63.8973 140.312 64C139.892 64.0933 139.5 64.14 139.136 64.14ZM144.245 64.112C143.956 64.112 143.732 64.0373 143.573 63.888C143.424 63.7293 143.349 63.5053 143.349 63.216V57.924C143.349 57.6347 143.424 57.4153 143.573 57.266C143.723 57.1167 143.933 57.042 144.203 57.042C144.474 57.042 144.684 57.1167 144.833 57.266C144.983 57.4153 145.057 57.6347 145.057 57.924V58.806H144.917C145.048 58.246 145.305 57.8213 145.687 57.532C146.07 57.2427 146.579 57.07 147.213 57.014C147.409 56.9953 147.563 57.0467 147.675 57.168C147.797 57.28 147.867 57.4573 147.885 57.7C147.904 57.9333 147.848 58.1247 147.717 58.274C147.596 58.414 147.409 58.498 147.157 58.526L146.849 58.554C146.28 58.61 145.851 58.7873 145.561 59.086C145.272 59.3753 145.127 59.786 145.127 60.318V63.216C145.127 63.5053 145.053 63.7293 144.903 63.888C144.754 64.0373 144.535 64.112 144.245 64.112ZM152.028 64.112C151.794 64.112 151.589 64.0513 151.412 63.93C151.244 63.8087 151.104 63.622 150.992 63.37L148.766 58.204C148.682 57.9987 148.649 57.8073 148.668 57.63C148.696 57.4527 148.78 57.3127 148.92 57.21C149.069 57.098 149.27 57.042 149.522 57.042C149.736 57.042 149.909 57.0933 150.04 57.196C150.17 57.2893 150.287 57.4713 150.39 57.742L152.28 62.46H151.86L153.806 57.728C153.908 57.4667 154.025 57.2893 154.156 57.196C154.296 57.0933 154.482 57.042 154.716 57.042C154.921 57.042 155.084 57.098 155.206 57.21C155.327 57.3127 155.402 57.4527 155.43 57.63C155.458 57.798 155.425 57.9847 155.332 58.19L153.064 63.37C152.961 63.622 152.821 63.8087 152.644 63.93C152.476 64.0513 152.27 64.112 152.028 64.112ZM157.507 64.098C157.227 64.098 157.012 64.014 156.863 63.846C156.713 63.678 156.639 63.4447 156.639 63.146V58.008C156.639 57.7 156.713 57.4667 156.863 57.308C157.012 57.14 157.227 57.056 157.507 57.056C157.787 57.056 158.001 57.14 158.151 57.308C158.309 57.4667 158.389 57.7 158.389 58.008V63.146C158.389 63.4447 158.314 63.678 158.165 63.846C158.015 64.014 157.796 64.098 157.507 64.098ZM157.507 55.754C157.18 55.754 156.923 55.6747 156.737 55.516C156.559 55.348 156.471 55.1193 156.471 54.83C156.471 54.5313 156.559 54.3027 156.737 54.144C156.923 53.9853 157.18 53.906 157.507 53.906C157.843 53.906 158.099 53.9853 158.277 54.144C158.454 54.3027 158.543 54.5313 158.543 54.83C158.543 55.1193 158.454 55.348 158.277 55.516C158.099 55.6747 157.843 55.754 157.507 55.754ZM163.581 64.14C162.806 64.14 162.139 63.9953 161.579 63.706C161.019 63.4167 160.585 63.006 160.277 62.474C159.978 61.942 159.829 61.312 159.829 60.584C159.829 59.8747 159.974 59.254 160.263 58.722C160.562 58.19 160.968 57.7747 161.481 57.476C162.004 57.168 162.596 57.014 163.259 57.014C163.744 57.014 164.178 57.0933 164.561 57.252C164.953 57.4107 165.284 57.6393 165.555 57.938C165.835 58.2367 166.045 58.6007 166.185 59.03C166.334 59.45 166.409 59.926 166.409 60.458C166.409 60.626 166.348 60.7567 166.227 60.85C166.115 60.934 165.952 60.976 165.737 60.976H161.243V59.968H165.177L164.953 60.178C164.953 59.7487 164.888 59.3893 164.757 59.1C164.636 58.8107 164.454 58.5913 164.211 58.442C163.978 58.2833 163.684 58.204 163.329 58.204C162.937 58.204 162.601 58.2973 162.321 58.484C162.05 58.6613 161.84 58.918 161.691 59.254C161.551 59.5807 161.481 59.9727 161.481 60.43V60.528C161.481 61.2933 161.658 61.8673 162.013 62.25C162.377 62.6233 162.909 62.81 163.609 62.81C163.852 62.81 164.122 62.782 164.421 62.726C164.729 62.6607 165.018 62.5533 165.289 62.404C165.485 62.292 165.658 62.2453 165.807 62.264C165.956 62.2733 166.073 62.3247 166.157 62.418C166.25 62.5113 166.306 62.628 166.325 62.768C166.344 62.8987 166.316 63.034 166.241 63.174C166.176 63.314 166.059 63.4353 165.891 63.538C165.564 63.7433 165.186 63.8973 164.757 64C164.337 64.0933 163.945 64.14 163.581 64.14ZM170.331 64.112C170.098 64.112 169.897 64.056 169.729 63.944C169.561 63.8227 169.426 63.636 169.323 63.384L167.293 58.204C167.209 57.98 167.181 57.784 167.209 57.616C167.247 57.4387 167.335 57.2987 167.475 57.196C167.615 57.0933 167.802 57.042 168.035 57.042C168.241 57.042 168.409 57.0933 168.539 57.196C168.67 57.2893 168.782 57.4713 168.875 57.742L170.569 62.404H170.247L171.997 57.63C172.072 57.4247 172.17 57.2753 172.291 57.182C172.422 57.0887 172.59 57.042 172.795 57.042C173.001 57.042 173.169 57.0933 173.299 57.196C173.43 57.2893 173.528 57.434 173.593 57.63L175.315 62.404H175.021L176.729 57.7C176.823 57.448 176.939 57.2753 177.079 57.182C177.229 57.0887 177.392 57.042 177.569 57.042C177.793 57.042 177.966 57.098 178.087 57.21C178.209 57.322 178.279 57.4667 178.297 57.644C178.316 57.812 178.283 57.9987 178.199 58.204L176.183 63.384C176.09 63.6267 175.955 63.8087 175.777 63.93C175.609 64.0513 175.409 64.112 175.175 64.112C174.942 64.112 174.737 64.0513 174.559 63.93C174.391 63.8087 174.261 63.6267 174.167 63.384L172.333 58.526H173.131L171.339 63.37C171.246 63.622 171.115 63.8087 170.947 63.93C170.779 64.0513 170.574 64.112 170.331 64.112Z" fill="#02004D"/>
<circle cx="46" cy="59" r="4" fill="#653A73"/>
<rect x="608" y="39" width="33" height="33" rx="10" fill="#653A73" fill-opacity="0.13"/>
<g clip-path="url(#clip0_349_613)">
<path d="M619.4 53.2H619.6C620.37 53.2 621 53.83 621 54.6V61.6C621 62.37 620.37 63 619.6 63H619.4C618.63 63 618 62.37 618 61.6V54.6C618 53.83 618.63 53.2 619.4 53.2ZM625 49C625.77 49 626.4 49.63 626.4 50.4V61.6C626.4 62.37 625.77 63 625 63C624.23 63 623.6 62.37 623.6 61.6V50.4C623.6 49.63 624.23 49 625 49ZM630.6 57C631.37 57 632 57.63 632 58.4V61.6C632 62.37 631.37 63 630.6 63C629.83 63 629.2 62.37 629.2 61.6V58.4C629.2 57.63 629.83 57 630.6 57Z" fill="#653A73"/>
</g>
</g>
<path d="M233 53C233 49.6863 235.686 47 239 47H285.886C289.2 47 291.886 49.6863 291.886 53V69.6316C291.886 72.9453 289.2 75.6316 285.886 75.6316H272.191C268.765 75.6316 265.522 77.182 263.371 79.8489C262.894 80.4408 261.992 80.4408 261.515 79.8489C259.364 77.182 256.121 75.6316 252.695 75.6316H239C235.686 75.6316 233 72.9453 233 69.6316V53Z" fill="#653A73"/>
<path d="M252.052 65.207C251.862 65.207 251.711 65.1557 251.601 65.053C251.499 64.943 251.447 64.7964 251.447 64.613C251.447 64.4224 251.499 64.2794 251.601 64.184C251.711 64.0887 251.862 64.041 252.052 64.041H253.284V58.64H253.966L252.349 59.619C252.21 59.6997 252.078 59.7327 251.953 59.718C251.836 59.696 251.733 59.6447 251.645 59.564C251.565 59.476 251.51 59.3734 251.48 59.256C251.451 59.1387 251.458 59.0214 251.502 58.904C251.554 58.7794 251.649 58.6767 251.788 58.596L253.306 57.683C253.453 57.595 253.6 57.5217 253.746 57.463C253.893 57.397 254.029 57.364 254.153 57.364C254.307 57.364 254.436 57.408 254.538 57.496C254.641 57.5767 254.692 57.7124 254.692 57.903V64.041H255.814C256.005 64.041 256.152 64.0887 256.254 64.184C256.364 64.2794 256.419 64.4224 256.419 64.613C256.419 64.8037 256.364 64.9504 256.254 65.053C256.152 65.1557 256.005 65.207 255.814 65.207H252.052ZM258.175 65.207C257.94 65.207 257.768 65.1557 257.658 65.053C257.555 64.943 257.504 64.7854 257.504 64.58C257.504 64.4554 257.537 64.3344 257.603 64.217C257.669 64.0997 257.764 63.975 257.889 63.843L260.1 61.489C260.437 61.137 260.679 60.818 260.826 60.532C260.973 60.2387 261.046 59.9454 261.046 59.652C261.046 59.2854 260.929 59.0067 260.694 58.816C260.467 58.6254 260.133 58.53 259.693 58.53C259.444 58.53 259.194 58.5667 258.945 58.64C258.696 58.706 258.443 58.8234 258.186 58.992C258.054 59.08 257.929 59.1167 257.812 59.102C257.702 59.0874 257.603 59.0397 257.515 58.959C257.434 58.8784 257.379 58.7794 257.35 58.662C257.321 58.5447 257.324 58.4274 257.361 58.31C257.405 58.1854 257.493 58.079 257.625 57.991C257.94 57.7784 258.292 57.617 258.681 57.507C259.077 57.397 259.473 57.342 259.869 57.342C260.426 57.342 260.896 57.4264 261.277 57.595C261.658 57.7637 261.948 58.0094 262.146 58.332C262.344 58.6547 262.443 59.047 262.443 59.509C262.443 59.817 262.392 60.1177 262.289 60.411C262.194 60.7044 262.043 61.0014 261.838 61.302C261.64 61.6027 261.38 61.9217 261.057 62.259L258.989 64.415V64.041H262.223C262.421 64.041 262.571 64.0887 262.674 64.184C262.777 64.2794 262.828 64.4224 262.828 64.613C262.828 64.8037 262.777 64.9504 262.674 65.053C262.571 65.1557 262.421 65.207 262.223 65.207H258.175ZM266.267 65.317C265.79 65.317 265.39 65.2364 265.068 65.075C264.752 64.9137 264.518 64.679 264.364 64.371C264.21 64.0557 264.133 63.667 264.133 63.205V60.862H263.561C263.385 60.862 263.249 60.818 263.154 60.73C263.058 60.6347 263.011 60.5064 263.011 60.345C263.011 60.1764 263.058 60.048 263.154 59.96C263.249 59.872 263.385 59.828 263.561 59.828H264.133V58.827C264.133 58.5997 264.191 58.4274 264.309 58.31C264.433 58.1927 264.606 58.134 264.826 58.134C265.046 58.134 265.214 58.1927 265.332 58.31C265.449 58.4274 265.508 58.5997 265.508 58.827V59.828H266.674C266.85 59.828 266.985 59.872 267.081 59.96C267.176 60.048 267.224 60.1764 267.224 60.345C267.224 60.5064 267.176 60.6347 267.081 60.73C266.985 60.818 266.85 60.862 266.674 60.862H265.508V63.128C265.508 63.48 265.585 63.744 265.739 63.92C265.893 64.096 266.142 64.184 266.487 64.184C266.611 64.184 266.721 64.173 266.817 64.151C266.912 64.129 266.996 64.1144 267.07 64.107C267.158 64.0997 267.231 64.129 267.29 64.195C267.348 64.2537 267.378 64.3784 267.378 64.569C267.378 64.7157 267.352 64.8477 267.301 64.965C267.257 65.075 267.172 65.152 267.048 65.196C266.952 65.2254 266.828 65.251 266.674 65.273C266.52 65.3024 266.384 65.317 266.267 65.317ZM268.626 65.295C268.406 65.295 268.237 65.2364 268.12 65.119C268.003 64.9944 267.944 64.8184 267.944 64.591V58.057C267.944 57.8297 268.003 57.6574 268.12 57.54C268.237 57.4227 268.406 57.364 268.626 57.364C268.846 57.364 269.015 57.4227 269.132 57.54C269.257 57.6574 269.319 57.8297 269.319 58.057V60.906H269.165C269.326 60.5174 269.576 60.224 269.913 60.026C270.258 59.8207 270.646 59.718 271.079 59.718C271.512 59.718 271.867 59.7987 272.146 59.96C272.425 60.1214 272.634 60.367 272.773 60.697C272.912 61.0197 272.982 61.4304 272.982 61.929V64.591C272.982 64.8184 272.923 64.9944 272.806 65.119C272.689 65.2364 272.52 65.295 272.3 65.295C272.08 65.295 271.908 65.2364 271.783 65.119C271.666 64.9944 271.607 64.8184 271.607 64.591V61.995C271.607 61.577 271.526 61.2727 271.365 61.082C271.211 60.8914 270.969 60.796 270.639 60.796C270.236 60.796 269.913 60.9244 269.671 61.181C269.436 61.4304 269.319 61.764 269.319 62.182V64.591C269.319 65.0604 269.088 65.295 268.626 65.295Z" fill="white"/>
<defs>
<filter id="filter0_d_349_613" x="0" y="0" width="680" height="324" filterUnits="userSpaceOnUse" color-interpolation-filters="sRGB">
<feFlood flood-opacity="0" result="BackgroundImageFix"/>
<feColorMatrix in="SourceAlpha" type="matrix" values="0 0 0 0 0 0 0 0 0 0 0 0 0 0 0 0 0 0 127 0" result="hardAlpha"/>
<feOffset dy="1"/>
<feGaussianBlur stdDeviation="7.5"/>
<feComposite in2="hardAlpha" operator="out"/>
<feColorMatrix type="matrix" values="0 0 0 0 0.541176 0 0 0 0 0.592157 0 0 0 0 0.745098 0 0 0 0.15 0"/>
<feBlend mode="normal" in2="BackgroundImageFix" result="effect1_dropShadow_349_613"/>
<feBlend mode="normal" in="SourceGraphic" in2="effect1_dropShadow_349_613" result="shape"/>
</filter>
<filter id="filter1_f_349_613" x="32" y="120.833" width="612" height="127" filterUnits="userSpaceOnUse" color-interpolation-filters="sRGB">
<feFlood flood-opacity="0" result="BackgroundImageFix"/>
<feBlend mode="normal" in="SourceGraphic" in2="BackgroundImageFix" result="shape"/>
<feGaussianBlur stdDeviation="5" result="effect1_foregroundBlur_349_613"/>
</filter>
<filter id="filter2_f_349_613" x="245" y="156.833" width="34" height="34" filterUnits="userSpaceOnUse" color-interpolation-filters="sRGB">
<feFlood flood-opacity="0" result="BackgroundImageFix"/>
<feBlend mode="normal" in="SourceGraphic" in2="BackgroundImageFix" result="shape"/>
<feGaussianBlur stdDeviation="4.5" result="effect1_foregroundBlur_349_613"/>
</filter>
<linearGradient id="paint0_linear_349_613" x1="338" y1="118.833" x2="338" y2="282.833" gradientUnits="userSpaceOnUse">
<stop stop-color="#653A73" stop-opacity="0.22"/>
<stop offset="1" stop-color="white" stop-opacity="0"/>
</linearGradient>
<clipPath id="clip0_349_613">
<rect width="24" height="24" fill="white" transform="translate(613 44)"/>
</clipPath>
</defs>
</svg>
